<svg xmlns="http://www.w3.org/2000/svg" xmlns:xlink="http://www.w3.org/1999/xlink" width="65" zoomAndPan="magnify" viewBox="0 0 48.75 32.249999" height="43" preserveAspectRatio="xMidYMid meet" version="1.2"><defs><clipPath id="d52b7bba29"><path d="M 2 2 L 46.695312 2 L 46.695312 29.082031 L 2 29.082031 Z M 2 2 "/></clipPath><clipPath id="1813c0ff08"><path d="M 2 2 L 46.695312 2 L 46.695312 29.082031 L 2 29.082031 Z M 2 2 "/></clipPath></defs><g id="91f3107cb7"><g clip-rule="nonzero" clip-path="url(#d52b7bba29)"><path style=" stroke:none;fill-rule:nonzero;fill:#ffffff;fill-opacity:1;" d="M 46.089844 21.902344 L 28.21875 29.082031 L 15.210938 27.371094 C 14.84375 27.859375 13.539062 28.117188 12.304688 28.117188 C 11.390625 28.117188 10.4375 27.980469 9.863281 27.714844 L 9.863281 28.019531 C 9.863281 28.675781 8.3125 29.042969 6.863281 29.042969 C 5.457031 29.042969 3.980469 28.714844 3.871094 28.105469 L 3.871094 28.078125 L 3.859375 26.957031 L 3.859375 24.871094 L 3.871094 24.871094 L 3.871094 24.84375 C 3.710938 24.492188 3.433594 24.210938 3.066406 24.0625 C 3.015625 24.039062 2.96875 24.027344 2.90625 24.003906 C 2.75 23.941406 2.578125 23.90625 2.417969 23.855469 C 2.359375 23.84375 2.296875 23.820312 2.234375 23.808594 C 2.054688 23.734375 2.015625 23.625 2.015625 23.539062 C 2.015625 23.367188 2.175781 23.320312 2.222656 23.308594 C 2.332031 23.269531 2.429688 23.246094 2.542969 23.222656 C 2.699219 23.183594 2.847656 23.136719 2.992188 23.074219 C 3.46875 22.894531 3.835938 22.476562 3.957031 21.976562 C 3.992188 21.867188 4.019531 21.757812 4.054688 21.660156 C 4.078125 21.574219 4.101562 21.488281 4.128906 21.414062 C 4.175781 21.246094 4.296875 21.21875 4.371094 21.21875 C 4.457031 21.21875 4.554688 21.257812 4.605469 21.402344 C 4.664062 21.609375 4.726562 21.820312 4.785156 22.027344 C 4.882812 22.367188 5.078125 22.648438 5.359375 22.855469 C 5.824219 22.769531 6.347656 22.722656 6.863281 22.722656 C 7.042969 22.722656 7.226562 22.722656 7.410156 22.734375 L 7.410156 21.085938 L 7.421875 21.085938 L 7.421875 20.804688 C 4.703125 15.449219 2.859375 9.417969 2.835938 9.332031 L 2.796875 9.222656 L 19.761719 3.109375 L 21.09375 6.183594 C 21.347656 5.804688 21.726562 5.5 22.191406 5.316406 L 28.476562 2.851562 L 29.417969 2.484375 C 30.757812 1.960938 32.394531 2.570312 33.089844 3.839844 L 38.09375 13.09375 C 38.277344 13.421875 38.375 13.777344 38.398438 14.128906 C 41.339844 17.046875 45.917969 21.707031 45.964844 21.757812 Z M 46.089844 21.902344 "/></g><path style=" stroke:none;fill-rule:nonzero;fill:#e076e3;fill-opacity:1;" d="M 15.296875 17.949219 L 15.28125 17.949219 L 15.296875 17.949219 C 14.976562 18.167969 14.746094 18.449219 14.585938 18.765625 L 12.941406 19.414062 C 12.367188 19.121094 11.378906 18.976562 10.414062 18.976562 L 10.253906 18.558594 L 18.285156 15.410156 L 18.738281 16.570312 C 17.675781 16.996094 16.820312 17.328125 16.355469 17.523438 C 16.125 17.558594 15.894531 17.632812 15.648438 17.742188 C 15.515625 17.804688 15.394531 17.875 15.296875 17.949219 Z M 8.703125 14.628906 L 9.398438 16.398438 L 17.429688 13.25 L 16.785156 11.589844 Z M 13.402344 22.125 L 13.402344 23.953125 C 13.597656 23.980469 13.78125 24.015625 13.964844 24.050781 L 14.792969 23.722656 C 14.769531 23.589844 14.734375 23.464844 14.710938 23.332031 L 14.710938 23.320312 C 14.585938 22.894531 14.378906 22.125 14.292969 21.28125 L 13.429688 21.625 L 13.429688 22.125 Z M 18.957031 16.484375 C 19.726562 16.179688 20.59375 15.839844 21.507812 15.472656 L 21.054688 14.324219 L 18.492188 15.324219 Z M 13.402344 19.953125 L 13.402344 21.039062 C 13.402344 21.050781 13.402344 21.074219 13.402344 21.085938 L 13.402344 21.355469 L 14.246094 21.023438 C 14.195312 20.367188 14.222656 19.683594 14.441406 19.085938 L 13.183594 19.574219 C 13.316406 19.683594 13.390625 19.804688 13.402344 19.953125 Z M 18.40625 15.09375 L 20.96875 14.09375 L 20.3125 12.394531 L 17.75 13.398438 Z M 17.003906 11.503906 L 17.652344 13.164062 L 20.214844 12.164062 L 19.578125 10.527344 Z M 18.1875 15.179688 L 17.515625 13.496094 L 9.484375 16.644531 L 10.144531 18.339844 Z M 22.449219 23.101562 C 22.421875 23.074219 22.386719 23.039062 22.363281 23.015625 C 22.238281 22.894531 22.105469 22.746094 21.960938 22.613281 C 21.652344 22.308594 21.300781 21.964844 20.921875 21.609375 C 20.886719 21.574219 20.859375 21.550781 20.824219 21.511719 C 20.789062 21.476562 20.761719 21.453125 20.726562 21.414062 C 20.675781 21.367188 20.628906 21.316406 20.578125 21.28125 C 19.957031 20.707031 19.296875 20.109375 18.664062 19.585938 C 18.589844 19.523438 18.515625 19.464844 18.445312 19.402344 C 17.808594 18.890625 17.222656 18.460938 16.761719 18.207031 C 16.648438 18.144531 16.550781 18.097656 16.46875 18.058594 C 16.296875 17.984375 16.136719 17.949219 16.027344 17.949219 C 16.015625 17.949219 16.015625 17.949219 16.003906 17.949219 L 15.84375 17.949219 C 15.820312 17.960938 15.796875 17.972656 15.769531 17.984375 C 15.429688 18.144531 15.171875 18.375 14.976562 18.644531 C 14.90625 18.753906 14.84375 18.863281 14.78125 18.988281 C 14.515625 19.5625 14.464844 20.269531 14.515625 20.953125 C 14.515625 21.039062 14.527344 21.121094 14.539062 21.207031 C 14.625 22.0625 14.84375 22.84375 14.953125 23.28125 L 14.953125 23.296875 C 14.988281 23.417969 15.015625 23.539062 15.039062 23.660156 C 15.050781 23.699219 15.050781 23.746094 15.0625 23.785156 C 15.074219 23.820312 15.074219 23.867188 15.085938 23.90625 C 15.125 24.113281 15.136719 24.332031 15.136719 24.539062 C 15.246094 24.636719 15.320312 24.761719 15.332031 24.882812 L 15.332031 25.96875 C 15.332031 25.980469 15.332031 26.003906 15.332031 26.015625 L 15.332031 26.296875 L 18.210938 25.078125 L 20.507812 24.101562 L 22.203125 23.378906 L 22.582031 23.222656 C 22.570312 23.210938 22.570312 23.210938 22.558594 23.199219 C 22.507812 23.160156 22.472656 23.125 22.449219 23.101562 Z M 18.371094 5.5625 C 18.335938 5.453125 18.210938 5.390625 18.101562 5.441406 L 5.652344 9.90625 C 5.542969 9.941406 5.484375 10.066406 5.53125 10.175781 C 5.582031 10.285156 5.691406 10.347656 5.800781 10.296875 L 18.25 5.832031 C 18.347656 5.78125 18.40625 5.671875 18.371094 5.5625 Z M 7.140625 13.996094 C 7.179688 14.105469 7.300781 14.167969 7.410156 14.117188 L 19.859375 9.648438 C 19.96875 9.613281 20.03125 9.492188 19.980469 9.382812 C 19.933594 9.273438 19.824219 9.210938 19.714844 9.257812 L 7.265625 13.726562 C 7.167969 13.777344 7.105469 13.886719 7.140625 13.996094 Z M 9.863281 26.921875 L 9.863281 27.433594 C 9.9375 27.46875 10.035156 27.519531 10.144531 27.554688 L 10.144531 26.675781 C 10.046875 26.640625 9.949219 26.601562 9.863281 26.566406 Z M 14.917969 26.480469 C 14.878906 26.503906 14.84375 26.515625 14.792969 26.542969 C 14.585938 26.640625 14.332031 26.726562 14.050781 26.796875 C 14.050781 26.796875 14.039062 26.796875 14.039062 26.796875 C 13.953125 26.824219 13.867188 26.835938 13.78125 26.847656 C 13.316406 26.933594 12.804688 26.96875 12.304688 26.96875 C 12.109375 26.96875 11.902344 26.957031 11.695312 26.945312 C 11.632812 26.945312 11.574219 26.933594 11.511719 26.933594 C 11.488281 26.933594 11.460938 26.933594 11.449219 26.921875 L 11.449219 27.8125 C 11.71875 27.835938 12 27.847656 12.304688 27.847656 C 13.867188 27.847656 15.039062 27.445312 15.0625 27.078125 C 15.0625 27.078125 15.0625 27.066406 15.0625 27.066406 L 15.0625 26.347656 C 15.050781 26.359375 15.039062 26.359375 15.027344 26.371094 C 14.988281 26.433594 14.953125 26.457031 14.917969 26.480469 Z M 14.890625 25.417969 C 14.84375 25.445312 14.792969 25.46875 14.746094 25.492188 C 14.160156 25.761719 13.21875 25.894531 12.304688 25.894531 C 12.011719 25.894531 11.71875 25.882812 11.425781 25.859375 L 11.425781 26.6875 C 11.4375 26.6875 11.4375 26.6875 11.449219 26.6875 C 11.71875 26.710938 12 26.726562 12.304688 26.726562 C 13.039062 26.726562 13.683594 26.640625 14.160156 26.503906 C 14.234375 26.480469 14.304688 26.46875 14.367188 26.445312 C 14.441406 26.417969 14.515625 26.394531 14.574219 26.371094 C 14.613281 26.359375 14.648438 26.335938 14.683594 26.320312 C 14.734375 26.296875 14.78125 26.273438 14.820312 26.25 C 14.878906 26.210938 14.941406 26.164062 14.976562 26.125 C 15.015625 26.089844 15.039062 26.042969 15.050781 26.003906 C 15.050781 25.992188 15.0625 25.96875 15.0625 25.957031 L 15.0625 25.308594 C 15.050781 25.320312 15.050781 25.320312 15.039062 25.332031 C 14.988281 25.359375 14.953125 25.382812 14.890625 25.417969 Z M 10.121094 26.140625 L 10.121094 25.589844 C 10.035156 25.554688 9.949219 25.527344 9.863281 25.492188 L 9.863281 26.285156 C 9.9375 26.320312 10.023438 26.359375 10.121094 26.394531 Z M 12.414062 24.761719 C 12.453125 24.746094 12.488281 24.734375 12.535156 24.722656 C 12.828125 24.625 13.039062 24.503906 13.121094 24.382812 C 13.160156 24.332031 13.171875 24.296875 13.171875 24.246094 L 13.171875 23.625 C 13.050781 23.722656 12.867188 23.820312 12.671875 23.894531 C 12.585938 23.929688 12.488281 23.953125 12.390625 23.992188 C 12.367188 24.003906 12.328125 24.003906 12.304688 24.015625 C 12.292969 24.015625 12.28125 24.015625 12.269531 24.027344 C 12.230469 24.039062 12.195312 24.050781 12.144531 24.050781 C 11.632812 24.175781 11.023438 24.234375 10.425781 24.234375 C 10.425781 24.234375 10.414062 24.234375 10.414062 24.234375 C 10.292969 24.234375 10.167969 24.234375 10.046875 24.222656 C 9.984375 24.222656 9.925781 24.222656 9.875 24.210938 L 9.875 24.785156 C 9.875 24.796875 9.875 24.808594 9.875 24.820312 C 9.875 24.820312 9.875 24.820312 9.875 24.832031 L 9.875 25.003906 C 9.914062 25.003906 9.960938 25.003906 10 25.003906 C 10.046875 25.003906 10.097656 25.003906 10.15625 25.015625 C 10.242188 25.015625 10.328125 25.015625 10.414062 25.015625 C 10.644531 25.015625 10.878906 25.003906 11.097656 24.992188 C 11.425781 24.96875 11.730469 24.917969 12 24.871094 C 12.144531 24.84375 12.28125 24.808594 12.414062 24.761719 Z M 7.644531 22.757812 C 7.765625 22.769531 7.875 22.78125 7.996094 22.796875 C 7.863281 22.734375 7.742188 22.660156 7.644531 22.585938 Z M 9.863281 23.699219 L 9.863281 23.953125 C 10.035156 23.964844 10.21875 23.964844 10.402344 23.964844 C 11.023438 23.964844 11.585938 23.90625 12.035156 23.796875 C 12.074219 23.785156 12.121094 23.785156 12.160156 23.769531 C 12.195312 23.757812 12.242188 23.746094 12.28125 23.734375 C 12.632812 23.636719 12.902344 23.515625 13.050781 23.378906 C 13.097656 23.34375 13.121094 23.296875 13.148438 23.257812 C 13.160156 23.234375 13.171875 23.210938 13.171875 23.171875 L 13.171875 22.5625 C 12.925781 22.757812 12.5 22.917969 12.011719 23.015625 C 11.976562 23.027344 11.925781 23.027344 11.890625 23.039062 C 11.851562 23.050781 11.804688 23.050781 11.769531 23.0625 C 11.523438 23.101562 11.269531 23.136719 11.011719 23.148438 C 10.816406 23.160156 10.621094 23.171875 10.425781 23.171875 C 10.242188 23.171875 10.058594 23.171875 9.886719 23.160156 C 9.777344 23.148438 9.679688 23.148438 9.570312 23.136719 L 9.570312 23.246094 C 9.582031 23.257812 9.59375 23.269531 9.621094 23.269531 C 9.667969 23.308594 9.71875 23.34375 9.753906 23.394531 C 9.804688 23.503906 9.851562 23.601562 9.863281 23.699219 Z M 11.585938 21.976562 C 11.546875 21.976562 11.5 21.988281 11.460938 21.988281 C 11.425781 21.988281 11.378906 22 11.339844 22 C 11.035156 22.039062 10.71875 22.050781 10.414062 22.050781 C 10.132812 22.050781 9.839844 22.039062 9.558594 22.015625 L 9.558594 22.90625 C 9.828125 22.929688 10.109375 22.941406 10.414062 22.941406 C 10.878906 22.941406 11.304688 22.90625 11.671875 22.84375 C 11.707031 22.832031 11.753906 22.832031 11.792969 22.820312 C 11.828125 22.808594 11.878906 22.808594 11.914062 22.796875 C 12.476562 22.683594 12.878906 22.527344 13.0625 22.355469 C 13.109375 22.320312 13.136719 22.269531 13.148438 22.234375 C 13.160156 22.210938 13.160156 22.183594 13.160156 22.160156 L 13.160156 21.453125 C 12.914062 21.648438 12.5 21.792969 12 21.902344 C 11.867188 21.929688 11.730469 21.953125 11.585938 21.976562 Z M 8.242188 22.40625 L 8.242188 21.757812 C 8.203125 21.746094 8.179688 21.734375 8.144531 21.722656 C 8.082031 21.695312 8.019531 21.671875 7.960938 21.648438 C 7.898438 21.625 7.839844 21.585938 7.777344 21.550781 C 7.726562 21.527344 7.679688 21.488281 7.644531 21.464844 L 7.644531 22.222656 C 7.644531 22.234375 7.65625 22.257812 7.667969 22.269531 C 7.691406 22.308594 7.714844 22.355469 7.765625 22.390625 C 7.863281 22.476562 8.019531 22.5625 8.230469 22.648438 L 8.230469 22.40625 Z M 7.65625 21.074219 C 7.65625 21.085938 7.667969 21.097656 7.667969 21.097656 C 7.679688 21.136719 7.703125 21.171875 7.742188 21.207031 C 7.742188 21.207031 7.753906 21.21875 7.753906 21.21875 C 7.789062 21.257812 7.851562 21.304688 7.910156 21.34375 C 7.921875 21.355469 7.949219 21.355469 7.960938 21.367188 C 8.035156 21.402344 8.117188 21.441406 8.214844 21.476562 L 8.214844 20.671875 C 7.984375 20.585938 7.789062 20.5 7.644531 20.390625 L 7.644531 21.050781 Z M 13.160156 20.390625 C 12.78125 20.683594 12.011719 20.867188 11.171875 20.941406 C 11.132812 20.941406 11.085938 20.953125 11.046875 20.953125 C 11.011719 20.953125 10.960938 20.953125 10.925781 20.964844 C 10.753906 20.976562 10.585938 20.976562 10.402344 20.976562 C 10.109375 20.976562 9.816406 20.964844 9.523438 20.941406 L 9.523438 21.769531 C 9.535156 21.769531 9.535156 21.769531 9.546875 21.769531 C 9.816406 21.792969 10.097656 21.804688 10.402344 21.804688 C 10.695312 21.804688 10.976562 21.792969 11.242188 21.769531 C 11.292969 21.769531 11.328125 21.757812 11.367188 21.757812 C 11.402344 21.757812 11.449219 21.746094 11.488281 21.746094 C 12.132812 21.660156 12.632812 21.5 12.914062 21.332031 C 12.976562 21.292969 13.039062 21.246094 13.074219 21.207031 C 13.109375 21.171875 13.136719 21.121094 13.148438 21.085938 C 13.148438 21.074219 13.160156 21.050781 13.160156 21.039062 Z M 4.101562 28.042969 C 4.140625 28.191406 4.347656 28.335938 4.6875 28.46875 L 4.6875 27.6875 C 4.445312 27.605469 4.238281 27.507812 4.101562 27.394531 Z M 9.496094 27.46875 C 8.949219 27.8125 7.886719 27.980469 6.863281 27.980469 C 6.582031 27.980469 6.289062 27.96875 6.007812 27.945312 L 6.007812 28.75 C 6.277344 28.773438 6.554688 28.789062 6.863281 28.789062 C 8.4375 28.789062 9.621094 28.371094 9.621094 28.007812 L 9.621094 27.382812 C 9.621094 27.382812 9.609375 27.394531 9.609375 27.394531 C 9.570312 27.421875 9.535156 27.445312 9.496094 27.46875 Z M 4.101562 26.945312 L 4.101562 27.003906 C 4.101562 27.03125 4.117188 27.042969 4.128906 27.066406 C 4.152344 27.101562 4.1875 27.152344 4.238281 27.1875 C 4.335938 27.273438 4.492188 27.359375 4.703125 27.433594 L 4.703125 26.652344 C 4.457031 26.566406 4.25 26.46875 4.117188 26.359375 Z M 9.546875 26.40625 C 9.511719 26.433594 9.472656 26.457031 9.425781 26.480469 C 9.386719 26.503906 9.351562 26.515625 9.300781 26.542969 C 8.851562 26.75 8.167969 26.882812 7.449219 26.933594 C 7.253906 26.945312 7.058594 26.957031 6.863281 26.957031 C 6.679688 26.957031 6.496094 26.957031 6.324219 26.945312 C 6.214844 26.933594 6.117188 26.933594 6.007812 26.921875 L 6.007812 27.714844 C 6.277344 27.738281 6.554688 27.75 6.863281 27.75 C 7.996094 27.75 8.910156 27.542969 9.351562 27.285156 C 9.386719 27.261719 9.425781 27.238281 9.460938 27.214844 C 9.472656 27.199219 9.496094 27.1875 9.511719 27.175781 C 9.523438 27.164062 9.546875 27.140625 9.558594 27.128906 C 9.582031 27.101562 9.59375 27.078125 9.609375 27.054688 C 9.621094 27.03125 9.632812 27.003906 9.632812 26.96875 L 9.632812 26.347656 C 9.621094 26.359375 9.59375 26.371094 9.582031 26.382812 C 9.558594 26.394531 9.558594 26.394531 9.546875 26.40625 Z M 4.605469 25.699219 C 4.589844 25.738281 4.578125 25.761719 4.566406 25.785156 C 4.53125 25.847656 4.46875 25.871094 4.421875 25.882812 C 4.394531 25.882812 4.382812 25.882812 4.371094 25.882812 C 4.371094 25.882812 4.371094 25.882812 4.359375 25.882812 C 4.324219 25.882812 4.261719 25.871094 4.214844 25.820312 C 4.1875 25.796875 4.152344 25.75 4.140625 25.6875 C 4.128906 25.652344 4.117188 25.613281 4.101562 25.566406 L 4.101562 25.957031 C 4.101562 25.96875 4.117188 25.992188 4.128906 26.003906 C 4.152344 26.042969 4.175781 26.089844 4.226562 26.125 C 4.324219 26.210938 4.480469 26.296875 4.6875 26.382812 L 4.6875 25.492188 C 4.675781 25.492188 4.664062 25.480469 4.664062 25.480469 C 4.640625 25.566406 4.628906 25.625 4.605469 25.699219 Z M 9.546875 25.261719 C 9.535156 25.273438 9.523438 25.273438 9.523438 25.285156 C 9.496094 25.308594 9.460938 25.320312 9.425781 25.347656 C 9.386719 25.371094 9.351562 25.382812 9.300781 25.40625 C 8.714844 25.675781 7.777344 25.820312 6.863281 25.820312 C 6.582031 25.820312 6.289062 25.808594 6.007812 25.785156 L 6.007812 26.675781 C 6.277344 26.699219 6.554688 26.710938 6.863281 26.710938 C 7.949219 26.710938 8.851562 26.515625 9.300781 26.273438 C 9.339844 26.261719 9.363281 26.238281 9.386719 26.222656 C 9.398438 26.210938 9.414062 26.210938 9.425781 26.199219 C 9.449219 26.1875 9.472656 26.164062 9.484375 26.152344 C 9.496094 26.140625 9.496094 26.140625 9.511719 26.125 C 9.535156 26.101562 9.558594 26.078125 9.570312 26.054688 C 9.582031 26.042969 9.582031 26.027344 9.582031 26.027344 C 9.582031 26.015625 9.59375 26.015625 9.59375 26.003906 C 9.609375 25.980469 9.609375 25.957031 9.609375 25.929688 L 9.609375 25.210938 C 9.59375 25.222656 9.59375 25.222656 9.582031 25.234375 C 9.570312 25.25 9.558594 25.261719 9.546875 25.261719 Z M 9.558594 24.1875 C 9.523438 24.210938 9.496094 24.222656 9.472656 24.246094 C 9.4375 24.273438 9.398438 24.285156 9.363281 24.308594 C 9.070312 24.453125 8.679688 24.566406 8.242188 24.636719 C 8.191406 24.648438 8.132812 24.648438 8.082031 24.664062 C 8.007812 24.675781 7.949219 24.6875 7.875 24.6875 C 7.8125 24.699219 7.742188 24.699219 7.679688 24.710938 C 7.410156 24.734375 7.140625 24.746094 6.863281 24.746094 C 6.570312 24.746094 6.277344 24.734375 5.984375 24.710938 L 5.984375 25.542969 C 5.996094 25.542969 5.996094 25.542969 6.007812 25.542969 C 6.277344 25.566406 6.554688 25.578125 6.863281 25.578125 C 7.863281 25.578125 8.703125 25.40625 9.179688 25.199219 C 9.21875 25.175781 9.265625 25.164062 9.300781 25.136719 C 9.328125 25.125 9.339844 25.113281 9.363281 25.101562 C 9.363281 25.101562 9.375 25.101562 9.375 25.089844 C 9.386719 25.078125 9.414062 25.066406 9.425781 25.054688 C 9.4375 25.039062 9.449219 25.039062 9.460938 25.027344 C 9.472656 25.015625 9.484375 25.015625 9.496094 25.003906 C 9.511719 24.992188 9.511719 24.992188 9.523438 24.980469 C 9.535156 24.96875 9.535156 24.96875 9.535156 24.957031 C 9.546875 24.941406 9.546875 24.941406 9.558594 24.929688 C 9.570312 24.90625 9.582031 24.894531 9.59375 24.871094 C 9.609375 24.859375 9.609375 24.84375 9.609375 24.832031 C 9.609375 24.820312 9.621094 24.796875 9.621094 24.785156 L 9.621094 24.148438 C 9.609375 24.160156 9.59375 24.175781 9.570312 24.1875 C 9.570312 24.1875 9.558594 24.1875 9.558594 24.1875 Z M 35.886719 16.535156 L 30.539062 18.632812 C 29.320312 19.109375 27.804688 18.558594 27.171875 17.386719 L 25.425781 14.167969 L 25.363281 14.054688 L 25.304688 13.945312 L 22.15625 8.136719 C 21.847656 7.574219 21.800781 6.953125 21.996094 6.402344 C 22.203125 5.855469 22.628906 5.414062 23.214844 5.195312 L 28.5625 3.097656 L 29.292969 2.816406 L 29.5 2.730469 C 29.539062 2.71875 29.585938 2.707031 29.625 2.695312 C 29.878906 2.609375 30.160156 2.558594 30.429688 2.558594 C 31.40625 2.558594 32.394531 3.097656 32.871094 3.976562 L 37.875 13.226562 C 37.984375 13.433594 38.070312 13.652344 38.105469 13.875 C 38.117188 13.933594 38.128906 14.007812 38.128906 14.070312 C 38.128906 14.128906 38.144531 14.191406 38.144531 14.25 C 38.144531 14.496094 38.105469 14.726562 38.019531 14.960938 C 37.824219 15.496094 37.421875 15.910156 36.859375 16.144531 C 36.835938 16.15625 36.824219 16.167969 36.800781 16.167969 L 36.570312 16.265625 Z M 32.003906 11.503906 C 31.96875 11.480469 31.929688 11.445312 31.882812 11.421875 C 31.832031 11.394531 31.796875 11.371094 31.746094 11.347656 C 31.710938 11.335938 31.675781 11.308594 31.636719 11.296875 C 31.296875 11.164062 30.929688 11.152344 30.601562 11.273438 C 30.503906 11.308594 30.417969 11.359375 30.332031 11.40625 C 30.015625 11.519531 29.746094 11.738281 29.613281 12.066406 C 29.585938 12.128906 29.574219 12.1875 29.5625 12.25 C 29.550781 12.296875 29.550781 12.347656 29.539062 12.382812 C 29.539062 12.433594 29.539062 12.46875 29.539062 12.519531 C 29.5625 13.007812 29.890625 13.484375 30.429688 13.691406 C 30.613281 13.761719 30.796875 13.800781 30.980469 13.800781 C 31.171875 13.800781 31.355469 13.761719 31.527344 13.691406 C 31.601562 13.679688 31.675781 13.652344 31.746094 13.628906 C 32.078125 13.507812 32.332031 13.273438 32.457031 12.96875 C 32.578125 12.664062 32.566406 12.324219 32.40625 12.003906 C 32.308594 11.796875 32.175781 11.640625 32.003906 11.503906 Z M 29.5 11.042969 C 29.695312 11.042969 29.890625 11.003906 30.0625 10.917969 C 30.464844 10.847656 30.820312 10.589844 30.980469 10.199219 C 31.234375 9.566406 30.867188 8.820312 30.160156 8.539062 C 29.820312 8.40625 29.453125 8.394531 29.125 8.515625 C 29.027344 8.550781 28.941406 8.601562 28.855469 8.648438 C 28.84375 8.648438 28.832031 8.648438 28.832031 8.660156 C 28.5 8.773438 28.257812 9.003906 28.136719 9.308594 C 28.011719 9.613281 28.039062 9.941406 28.183594 10.25 C 28.34375 10.554688 28.609375 10.796875 28.941406 10.933594 C 29.125 11.003906 29.320312 11.042969 29.5 11.042969 Z M 32.296875 7.269531 C 32.199219 7.308594 32.113281 7.355469 32.027344 7.40625 C 31.710938 7.515625 31.441406 7.734375 31.308594 8.0625 C 31.0625 8.6875 31.429688 9.40625 32.113281 9.6875 C 32.296875 9.761719 32.480469 9.796875 32.664062 9.796875 C 32.859375 9.796875 33.042969 9.761719 33.210938 9.6875 C 33.285156 9.675781 33.359375 9.648438 33.433594 9.625 C 33.761719 9.503906 34.015625 9.273438 34.140625 8.964844 C 34.1875 8.832031 34.210938 8.699219 34.210938 8.5625 C 34.210938 8.453125 34.199219 8.332031 34.164062 8.222656 C 34.140625 8.148438 34.113281 8.0625 34.078125 7.992188 C 34.03125 7.894531 33.96875 7.808594 33.894531 7.722656 C 33.808594 7.625 33.726562 7.539062 33.628906 7.476562 C 33.53125 7.40625 33.433594 7.355469 33.308594 7.308594 C 32.992188 7.171875 32.613281 7.160156 32.296875 7.269531 Z M 32.722656 11.199219 C 32.722656 11.382812 32.761719 11.578125 32.859375 11.75 C 33.015625 12.054688 33.285156 12.296875 33.613281 12.433594 C 33.796875 12.507812 33.980469 12.542969 34.175781 12.542969 C 34.335938 12.542969 34.492188 12.519531 34.640625 12.46875 C 34.664062 12.457031 34.699219 12.445312 34.726562 12.433594 C 34.796875 12.421875 34.871094 12.394531 34.945312 12.371094 C 35.1875 12.285156 35.382812 12.128906 35.53125 11.933594 C 35.554688 11.894531 35.578125 11.871094 35.59375 11.835938 C 35.617188 11.796875 35.628906 11.761719 35.640625 11.726562 C 35.640625 11.726562 35.640625 11.714844 35.652344 11.714844 C 35.703125 11.578125 35.726562 11.445312 35.726562 11.308594 C 35.726562 11.199219 35.714844 11.078125 35.675781 10.96875 C 35.628906 10.796875 35.53125 10.625 35.410156 10.480469 C 35.335938 10.382812 35.238281 10.296875 35.128906 10.222656 C 35.03125 10.164062 34.933594 10.101562 34.8125 10.054688 C 34.359375 9.871094 33.871094 9.929688 33.515625 10.152344 C 33.1875 10.261719 32.929688 10.480469 32.796875 10.808594 C 32.785156 10.847656 32.773438 10.882812 32.761719 10.933594 C 32.75 10.980469 32.734375 11.03125 32.734375 11.066406 C 32.722656 11.113281 32.722656 11.152344 32.722656 11.199219 Z M 25.023438 9.625 C 25.144531 9.625 25.265625 9.601562 25.375 9.566406 L 25.828125 9.382812 L 32.261719 6.855469 C 32.308594 6.84375 32.34375 6.820312 32.394531 6.792969 C 32.578125 6.683594 32.710938 6.511719 32.761719 6.304688 C 32.808594 6.097656 32.785156 5.878906 32.675781 5.707031 L 31.871094 4.207031 C 31.625 3.765625 31.101562 3.570312 30.613281 3.742188 L 30.160156 3.925781 L 23.730469 6.453125 C 23.679688 6.464844 23.644531 6.488281 23.59375 6.511719 C 23.410156 6.625 23.277344 6.792969 23.226562 7 C 23.179688 7.210938 23.203125 7.429688 23.3125 7.601562 L 24.121094 9.101562 C 24.316406 9.441406 24.65625 9.625 25.023438 9.625 Z M 25.765625 12.175781 C 25.949219 12.25 26.132812 12.285156 26.316406 12.285156 C 26.511719 12.285156 26.707031 12.25 26.878906 12.164062 C 27.28125 12.089844 27.632812 11.835938 27.792969 11.457031 C 27.914062 11.152344 27.902344 10.808594 27.746094 10.492188 C 27.585938 10.1875 27.316406 9.941406 26.976562 9.796875 C 26.632812 9.664062 26.265625 9.648438 25.9375 9.773438 C 25.839844 9.808594 25.753906 9.859375 25.667969 9.90625 C 25.351562 10.015625 25.082031 10.234375 24.949219 10.566406 C 24.71875 11.164062 25.082031 11.894531 25.765625 12.175781 Z M 27.816406 15.03125 C 28.011719 15.03125 28.195312 14.996094 28.367188 14.921875 C 28.441406 14.910156 28.511719 14.886719 28.585938 14.863281 C 28.914062 14.738281 29.171875 14.507812 29.292969 14.203125 C 29.488281 13.703125 29.304688 13.140625 28.878906 12.785156 C 28.84375 12.761719 28.804688 12.726562 28.769531 12.703125 C 28.734375 12.675781 28.683594 12.652344 28.636719 12.628906 C 28.585938 12.605469 28.539062 12.578125 28.476562 12.554688 C 28.023438 12.371094 27.535156 12.433594 27.183594 12.652344 C 27.171875 12.652344 27.160156 12.652344 27.144531 12.664062 C 26.816406 12.785156 26.574219 13.007812 26.449219 13.3125 C 26.425781 13.386719 26.402344 13.457031 26.390625 13.519531 C 26.378906 13.566406 26.378906 13.617188 26.378906 13.652344 C 26.378906 13.703125 26.378906 13.738281 26.378906 13.789062 C 26.390625 13.945312 26.425781 14.105469 26.511719 14.25 C 26.671875 14.558594 26.9375 14.800781 27.269531 14.933594 C 27.4375 14.996094 27.632812 15.03125 27.816406 15.03125 Z M 34.003906 14.691406 C 33.675781 14.09375 32.96875 13.835938 32.320312 14.070312 L 32.003906 14.191406 L 30.574219 14.75 L 28.867188 15.421875 L 28.550781 15.546875 C 28.488281 15.570312 28.425781 15.59375 28.378906 15.628906 C 28.136719 15.777344 27.964844 16.007812 27.890625 16.277344 C 27.816406 16.558594 27.855469 16.839844 28 17.082031 C 28.257812 17.535156 28.71875 17.789062 29.207031 17.789062 C 29.367188 17.789062 29.527344 17.765625 29.683594 17.707031 L 30.003906 17.582031 L 30.832031 17.253906 L 33.140625 16.351562 L 33.457031 16.230469 C 33.515625 16.203125 33.578125 16.179688 33.628906 16.144531 C 34.128906 15.851562 34.296875 15.191406 34.003906 14.691406 Z M 36.117188 15.019531 C 36.191406 15.007812 36.261719 14.984375 36.335938 14.960938 C 36.667969 14.835938 36.921875 14.605469 37.042969 14.300781 C 37.082031 14.191406 37.105469 14.082031 37.117188 13.972656 C 37.128906 13.835938 37.117188 13.703125 37.082031 13.566406 C 37.054688 13.484375 37.03125 13.410156 36.984375 13.324219 C 36.933594 13.226562 36.875 13.140625 36.800781 13.054688 C 36.714844 12.957031 36.628906 12.871094 36.53125 12.8125 C 36.433594 12.738281 36.335938 12.6875 36.214844 12.640625 C 35.871094 12.507812 35.507812 12.492188 35.175781 12.617188 C 35.078125 12.652344 34.992188 12.703125 34.910156 12.75 C 34.894531 12.75 34.882812 12.75 34.882812 12.761719 C 34.554688 12.871094 34.308594 13.105469 34.1875 13.410156 C 34.066406 13.714844 34.089844 14.042969 34.238281 14.347656 C 34.394531 14.652344 34.664062 14.898438 34.992188 15.03125 C 35.175781 15.105469 35.359375 15.140625 35.542969 15.140625 C 35.761719 15.140625 35.945312 15.09375 36.117188 15.019531 Z M 35.335938 19.902344 C 35.175781 19.914062 35.007812 19.9375 34.847656 19.988281 C 34.773438 20.011719 34.714844 20.023438 34.640625 20.023438 C 34.566406 20.023438 34.503906 19.988281 34.480469 19.925781 C 34.457031 19.867188 34.46875 19.804688 34.503906 19.757812 C 34.578125 19.671875 34.6875 19.621094 34.8125 19.609375 C 34.910156 19.609375 34.992188 19.644531 35.054688 19.707031 L 35.347656 19.402344 C 35.140625 19.207031 34.835938 19.15625 34.566406 19.28125 L 34.457031 19.058594 L 34.226562 19.183594 L 34.335938 19.402344 C 34.296875 19.4375 34.261719 19.464844 34.226562 19.488281 C 34.003906 19.683594 33.96875 20.011719 34.128906 20.269531 C 34.210938 20.425781 34.371094 20.523438 34.542969 20.523438 C 34.6875 20.523438 34.835938 20.5 34.980469 20.464844 C 35.078125 20.4375 35.164062 20.425781 35.261719 20.402344 C 35.3125 20.390625 35.347656 20.414062 35.382812 20.4375 C 35.382812 20.4375 35.398438 20.453125 35.398438 20.453125 C 35.46875 20.523438 35.457031 20.648438 35.382812 20.71875 C 35.324219 20.792969 35.238281 20.84375 35.140625 20.867188 C 35.007812 20.914062 34.859375 20.878906 34.773438 20.78125 C 34.761719 20.769531 34.761719 20.769531 34.75 20.757812 L 34.40625 21.039062 C 34.433594 21.0625 34.457031 21.085938 34.480469 21.109375 C 34.652344 21.269531 34.894531 21.316406 35.128906 21.246094 C 35.175781 21.234375 35.226562 21.21875 35.273438 21.207031 L 35.410156 21.464844 L 35.628906 21.34375 L 35.496094 21.085938 C 35.542969 21.050781 35.59375 21.011719 35.640625 20.964844 C 35.871094 20.769531 35.933594 20.4375 35.800781 20.171875 C 35.738281 20.023438 35.542969 19.902344 35.335938 19.902344 Z M 37.398438 19 C 37.238281 19.011719 37.070312 19.035156 36.910156 19.085938 C 36.835938 19.109375 36.777344 19.121094 36.703125 19.121094 C 36.628906 19.121094 36.570312 19.085938 36.542969 19.023438 C 36.519531 18.960938 36.53125 18.902344 36.570312 18.851562 C 36.640625 18.765625 36.75 18.71875 36.875 18.707031 C 36.972656 18.707031 37.054688 18.742188 37.117188 18.804688 L 37.410156 18.5 C 37.203125 18.304688 36.898438 18.253906 36.628906 18.375 L 36.519531 18.15625 L 36.289062 18.277344 L 36.398438 18.5 C 36.359375 18.535156 36.324219 18.558594 36.289062 18.585938 C 36.066406 18.78125 36.03125 19.109375 36.191406 19.367188 C 36.277344 19.523438 36.433594 19.621094 36.605469 19.621094 C 36.75 19.621094 36.898438 19.597656 37.042969 19.5625 C 37.140625 19.535156 37.226562 19.523438 37.324219 19.5 C 37.375 19.488281 37.410156 19.511719 37.445312 19.535156 C 37.445312 19.535156 37.460938 19.546875 37.460938 19.546875 C 37.53125 19.621094 37.519531 19.742188 37.445312 19.816406 C 37.386719 19.890625 37.300781 19.9375 37.203125 19.964844 C 37.070312 20.011719 36.921875 19.976562 36.835938 19.878906 C 36.824219 19.867188 36.824219 19.867188 36.8125 19.855469 L 36.472656 20.132812 C 36.496094 20.160156 36.519531 20.183594 36.542969 20.207031 C 36.714844 20.367188 36.957031 20.414062 37.191406 20.339844 C 37.238281 20.328125 37.289062 20.316406 37.335938 20.304688 L 37.472656 20.5625 L 37.691406 20.4375 L 37.558594 20.183594 C 37.605469 20.148438 37.65625 20.109375 37.703125 20.0625 C 37.933594 19.867188 37.996094 19.535156 37.863281 19.269531 C 37.800781 19.121094 37.605469 19 37.398438 19 Z M 39.800781 18.5 C 39.703125 18.316406 39.523438 18.207031 39.316406 18.207031 C 39.15625 18.21875 38.984375 18.242188 38.828125 18.292969 C 38.753906 18.316406 38.691406 18.328125 38.617188 18.328125 C 38.546875 18.328125 38.484375 18.292969 38.460938 18.230469 C 38.4375 18.167969 38.449219 18.109375 38.484375 18.058594 C 38.558594 17.972656 38.667969 17.925781 38.789062 17.914062 C 38.886719 17.914062 38.972656 17.949219 39.035156 18.011719 L 39.328125 17.707031 C 39.121094 17.511719 38.8125 17.460938 38.546875 17.582031 L 38.4375 17.363281 L 38.203125 17.484375 L 38.3125 17.707031 C 38.277344 17.742188 38.242188 17.765625 38.203125 17.789062 C 37.984375 17.984375 37.949219 18.316406 38.105469 18.570312 C 38.191406 18.730469 38.351562 18.828125 38.519531 18.828125 C 38.667969 18.828125 38.8125 18.804688 38.960938 18.765625 C 39.058594 18.742188 39.144531 18.730469 39.242188 18.707031 C 39.289062 18.695312 39.328125 18.71875 39.363281 18.742188 C 39.363281 18.742188 39.375 18.753906 39.375 18.753906 C 39.449219 18.828125 39.4375 18.949219 39.363281 19.023438 C 39.300781 19.097656 39.21875 19.144531 39.121094 19.171875 C 38.984375 19.21875 38.839844 19.183594 38.753906 19.085938 C 38.742188 19.074219 38.742188 19.074219 38.730469 19.058594 L 38.386719 19.339844 C 38.410156 19.367188 38.4375 19.390625 38.460938 19.414062 C 38.632812 19.574219 38.875 19.621094 39.105469 19.546875 C 39.15625 19.535156 39.203125 19.523438 39.253906 19.511719 L 39.386719 19.769531 L 39.609375 19.644531 L 39.472656 19.390625 C 39.523438 19.351562 39.570312 19.316406 39.621094 19.269531 C 39.886719 19.097656 39.949219 18.765625 39.800781 18.5 Z M 39.800781 18.5 "/><g clip-rule="nonzero" clip-path="url(#1813c0ff08)"><path style=" stroke:none;fill-rule:nonzero;fill:#000000;fill-opacity:1;" d="M 45.964844 21.769531 C 45.917969 21.722656 41.351562 17.058594 38.398438 14.140625 C 38.375 13.789062 38.277344 13.433594 38.09375 13.105469 L 33.089844 3.851562 C 32.40625 2.570312 30.757812 1.972656 29.417969 2.5 L 28.476562 2.863281 L 22.191406 5.328125 C 21.726562 5.511719 21.347656 5.816406 21.09375 6.195312 L 19.761719 3.109375 L 2.796875 9.222656 L 2.835938 9.332031 C 2.859375 9.417969 4.703125 15.449219 7.410156 20.828125 L 7.410156 21.109375 L 7.398438 21.109375 L 7.398438 22.757812 C 7.214844 22.746094 7.03125 22.746094 6.847656 22.746094 C 6.335938 22.746094 5.8125 22.796875 5.347656 22.878906 C 5.078125 22.671875 4.871094 22.390625 4.773438 22.050781 C 4.714844 21.84375 4.652344 21.636719 4.589844 21.429688 C 4.542969 21.269531 4.445312 21.246094 4.359375 21.246094 C 4.285156 21.246094 4.164062 21.257812 4.117188 21.441406 C 4.089844 21.527344 4.066406 21.609375 4.042969 21.683594 C 4.003906 21.792969 3.980469 21.890625 3.945312 22 C 3.824219 22.503906 3.457031 22.90625 2.980469 23.101562 C 2.835938 23.160156 2.6875 23.199219 2.527344 23.246094 C 2.429688 23.269531 2.320312 23.308594 2.210938 23.332031 C 2.175781 23.320312 2.015625 23.367188 2.015625 23.539062 C 2.015625 23.625 2.054688 23.734375 2.234375 23.796875 C 2.296875 23.808594 2.359375 23.832031 2.417969 23.84375 C 2.578125 23.894531 2.75 23.929688 2.90625 23.992188 C 2.957031 24.003906 3.015625 24.027344 3.066406 24.050781 C 3.417969 24.210938 3.699219 24.492188 3.871094 24.832031 L 3.871094 24.859375 L 3.859375 24.859375 L 3.859375 26.945312 L 3.871094 28.066406 L 3.871094 28.09375 C 3.992188 28.714844 5.46875 29.03125 6.863281 29.03125 C 8.3125 29.03125 9.863281 28.675781 9.863281 28.007812 L 9.863281 27.703125 C 10.449219 27.96875 11.390625 28.105469 12.304688 28.105469 C 13.539062 28.105469 14.84375 27.847656 15.210938 27.359375 L 28.21875 29.066406 L 46.089844 21.890625 Z M 28.28125 28.800781 L 27.976562 28.484375 L 26.839844 27.3125 L 27.402344 27.066406 L 28.234375 26.710938 L 28.136719 26.492188 L 27.304688 26.847656 L 26.65625 27.128906 L 22.972656 23.296875 L 22.789062 23.113281 C 22.777344 23.101562 22.765625 23.085938 22.753906 23.074219 C 22.726562 23.050781 22.703125 23.027344 22.667969 22.992188 C 22.644531 22.964844 22.605469 22.929688 22.582031 22.90625 C 22.558594 22.878906 22.546875 22.867188 22.519531 22.84375 C 22.421875 22.746094 22.3125 22.636719 22.191406 22.515625 C 22.167969 22.488281 22.140625 22.464844 22.105469 22.441406 C 21.847656 22.183594 21.519531 21.867188 21.164062 21.527344 C 21.128906 21.488281 21.105469 21.464844 21.066406 21.429688 C 21.03125 21.390625 21.007812 21.367188 20.96875 21.332031 C 20.910156 21.269531 20.835938 21.207031 20.773438 21.148438 C 20.640625 21.023438 20.507812 20.890625 20.359375 20.769531 C 19.894531 20.339844 19.394531 19.902344 18.90625 19.488281 C 18.835938 19.425781 18.761719 19.367188 18.6875 19.304688 C 18.089844 18.816406 17.515625 18.390625 17.015625 18.097656 C 16.917969 18.035156 16.832031 17.984375 16.734375 17.9375 C 16.613281 17.875 16.492188 17.816406 16.382812 17.777344 C 16.492188 17.742188 16.613281 17.691406 16.746094 17.632812 C 16.832031 17.59375 16.929688 17.558594 17.027344 17.523438 C 17.492188 17.339844 18.101562 17.09375 18.796875 16.816406 C 18.871094 16.789062 18.945312 16.753906 19.03125 16.730469 C 19.800781 16.425781 20.664062 16.082031 21.582031 15.714844 C 21.617188 15.703125 21.652344 15.691406 21.691406 15.667969 C 21.726562 15.65625 21.765625 15.644531 21.800781 15.617188 C 22.59375 15.300781 23.410156 14.972656 24.242188 14.640625 L 25.351562 16.691406 L 25.402344 16.789062 L 25.390625 16.789062 L 22.679688 17.886719 L 22.570312 17.9375 L 22.460938 17.984375 L 20.75 18.683594 L 20.773438 18.742188 L 20.835938 18.914062 L 22.546875 18.230469 L 22.65625 18.179688 L 22.765625 18.132812 L 25.472656 17.035156 L 25.5 17.023438 L 25.972656 17.902344 C 25.972656 17.914062 25.988281 17.914062 25.988281 17.925781 C 26.085938 18.097656 26.195312 18.265625 26.328125 18.414062 C 26.5 18.609375 26.683594 18.765625 26.902344 18.914062 L 26.597656 19.035156 L 26.488281 19.085938 L 26.378906 19.132812 L 23.59375 20.257812 L 23.484375 20.304688 L 23.375 20.355469 L 23.128906 20.453125 L 23.144531 20.476562 L 23.191406 20.585938 L 23.226562 20.671875 L 23.703125 20.476562 L 26.5 19.339844 L 26.609375 19.292969 L 26.71875 19.242188 L 27.183594 19.058594 C 27.632812 19.304688 28.136719 19.4375 28.648438 19.4375 C 28.988281 19.4375 29.332031 19.378906 29.660156 19.253906 L 35.945312 16.789062 L 36.886719 16.425781 C 37.53125 16.167969 38.019531 15.691406 38.242188 15.070312 C 38.300781 14.886719 38.351562 14.703125 38.363281 14.507812 C 40.035156 16.15625 42.160156 18.316406 43.707031 19.878906 L 42.269531 20.488281 L 42.367188 20.707031 L 43.890625 20.0625 C 44.734375 20.914062 45.367188 21.5625 45.636719 21.832031 Z M 15.0625 27.089844 C 15.0625 27.089844 15.0625 27.101562 15.0625 27.101562 C 15.039062 27.46875 13.867188 27.871094 12.304688 27.871094 C 12 27.871094 11.71875 27.859375 11.449219 27.835938 C 10.914062 27.785156 10.460938 27.6875 10.132812 27.566406 C 10.023438 27.53125 9.9375 27.480469 9.851562 27.445312 L 9.851562 26.578125 C 9.9375 26.613281 10.035156 26.652344 10.132812 26.6875 C 10.472656 26.796875 10.890625 26.882812 11.328125 26.933594 C 11.367188 26.933594 11.402344 26.945312 11.4375 26.945312 C 11.460938 26.945312 11.488281 26.945312 11.5 26.957031 C 11.558594 26.957031 11.621094 26.96875 11.683594 26.96875 C 11.878906 26.980469 12.085938 26.992188 12.292969 26.992188 C 12.792969 26.992188 13.316406 26.945312 13.769531 26.871094 C 13.855469 26.859375 13.941406 26.835938 14.027344 26.824219 C 14.027344 26.824219 14.039062 26.824219 14.039062 26.824219 C 14.332031 26.761719 14.574219 26.675781 14.78125 26.566406 C 14.820312 26.542969 14.867188 26.53125 14.90625 26.503906 C 14.953125 26.480469 14.988281 26.457031 15.027344 26.433594 C 15.039062 26.417969 15.050781 26.417969 15.0625 26.40625 Z M 9.621094 27.566406 L 9.621094 28.007812 C 9.621094 28.371094 8.4375 28.789062 6.863281 28.789062 C 6.554688 28.789062 6.277344 28.773438 6.007812 28.75 C 5.46875 28.703125 5.019531 28.605469 4.6875 28.484375 C 4.347656 28.359375 4.140625 28.203125 4.101562 28.054688 L 4.101562 27.394531 C 4.25 27.507812 4.457031 27.617188 4.6875 27.6875 C 5.054688 27.8125 5.519531 27.898438 6.007812 27.945312 C 6.289062 27.96875 6.570312 27.980469 6.863281 27.980469 C 7.886719 27.980469 8.960938 27.800781 9.496094 27.46875 C 9.535156 27.445312 9.570312 27.421875 9.609375 27.394531 C 9.609375 27.394531 9.621094 27.382812 9.621094 27.382812 Z M 4.101562 25.578125 C 4.117188 25.613281 4.128906 25.652344 4.140625 25.699219 C 4.152344 25.761719 4.1875 25.808594 4.214844 25.832031 C 4.261719 25.882812 4.324219 25.894531 4.359375 25.894531 C 4.359375 25.894531 4.359375 25.894531 4.371094 25.894531 C 4.382812 25.894531 4.410156 25.894531 4.421875 25.894531 C 4.46875 25.882812 4.519531 25.859375 4.566406 25.796875 C 4.578125 25.773438 4.589844 25.75 4.605469 25.710938 C 4.628906 25.652344 4.640625 25.578125 4.664062 25.515625 C 4.675781 25.515625 4.6875 25.527344 4.6875 25.527344 C 5.054688 25.652344 5.519531 25.738281 6.007812 25.785156 C 6.289062 25.808594 6.570312 25.820312 6.863281 25.820312 C 7.777344 25.820312 8.730469 25.675781 9.300781 25.40625 C 9.351562 25.382812 9.386719 25.371094 9.425781 25.347656 C 9.460938 25.332031 9.484375 25.308594 9.523438 25.285156 C 9.535156 25.273438 9.546875 25.273438 9.546875 25.261719 C 9.558594 25.25 9.570312 25.234375 9.59375 25.222656 C 9.609375 25.210938 9.621094 25.210938 9.621094 25.199219 L 9.621094 25.917969 C 9.621094 25.945312 9.621094 25.96875 9.609375 25.992188 C 9.609375 26.003906 9.59375 26.003906 9.59375 26.015625 C 9.59375 26.027344 9.582031 26.042969 9.582031 26.042969 C 9.570312 26.066406 9.546875 26.089844 9.523438 26.113281 C 9.511719 26.125 9.511719 26.125 9.496094 26.140625 C 9.472656 26.152344 9.460938 26.175781 9.4375 26.1875 C 9.425781 26.199219 9.414062 26.199219 9.398438 26.210938 C 9.375 26.222656 9.339844 26.25 9.316406 26.261719 C 8.863281 26.503906 7.960938 26.699219 6.875 26.699219 C 6.570312 26.699219 6.289062 26.6875 6.019531 26.664062 C 5.484375 26.613281 5.03125 26.515625 4.703125 26.394531 C 4.492188 26.320312 4.335938 26.238281 4.238281 26.140625 C 4.1875 26.101562 4.164062 26.054688 4.140625 26.015625 C 4.128906 26.003906 4.128906 25.980469 4.117188 25.96875 L 4.117188 25.894531 Z M 4.371094 21.476562 C 4.371094 21.476562 4.371094 21.464844 4.371094 21.476562 C 4.371094 21.464844 4.371094 21.476562 4.371094 21.476562 C 4.433594 21.683594 4.492188 21.890625 4.554688 22.097656 C 4.640625 22.417969 4.824219 22.710938 5.054688 22.929688 C 5.09375 22.964844 5.128906 23.003906 5.164062 23.027344 C 5.214844 23.0625 5.25 23.085938 5.300781 23.125 C 5.445312 23.222656 5.59375 23.296875 5.761719 23.34375 C 5.933594 23.40625 6.105469 23.453125 6.261719 23.492188 C 6.324219 23.503906 6.386719 23.527344 6.433594 23.539062 C 6.445312 23.539062 6.457031 23.550781 6.457031 23.550781 C 6.445312 23.550781 6.445312 23.5625 6.433594 23.5625 C 6.410156 23.574219 6.386719 23.574219 6.359375 23.589844 C 6.3125 23.601562 6.277344 23.613281 6.226562 23.625 C 6.191406 23.636719 6.164062 23.636719 6.128906 23.648438 C 6.042969 23.671875 5.957031 23.699219 5.871094 23.722656 C 5.800781 23.746094 5.726562 23.769531 5.652344 23.796875 C 5.617188 23.808594 5.59375 23.820312 5.554688 23.84375 C 5.53125 23.855469 5.507812 23.867188 5.46875 23.882812 C 5.457031 23.882812 5.457031 23.894531 5.445312 23.894531 C 5.410156 23.917969 5.359375 23.941406 5.324219 23.964844 C 5.191406 24.050781 5.066406 24.148438 4.957031 24.273438 C 4.921875 24.308594 4.898438 24.34375 4.871094 24.382812 C 4.847656 24.417969 4.824219 24.453125 4.800781 24.480469 C 4.75 24.550781 4.703125 24.636719 4.664062 24.710938 C 4.640625 24.761719 4.617188 24.808594 4.605469 24.859375 C 4.589844 24.894531 4.578125 24.941406 4.566406 24.980469 C 4.554688 25.003906 4.554688 25.027344 4.542969 25.054688 C 4.542969 25.066406 4.53125 25.089844 4.53125 25.101562 C 4.519531 25.125 4.519531 25.152344 4.507812 25.175781 C 4.492188 25.210938 4.480469 25.25 4.46875 25.285156 C 4.457031 25.308594 4.457031 25.332031 4.445312 25.359375 C 4.445312 25.371094 4.433594 25.382812 4.433594 25.394531 C 4.410156 25.46875 4.382812 25.542969 4.371094 25.601562 C 4.347656 25.503906 4.3125 25.40625 4.285156 25.308594 C 4.273438 25.25 4.25 25.1875 4.238281 25.125 C 4.238281 25.101562 4.226562 25.089844 4.226562 25.066406 C 4.214844 25.027344 4.199219 24.992188 4.1875 24.96875 C 4.1875 24.957031 4.1875 24.957031 4.175781 24.941406 C 4.175781 24.929688 4.164062 24.917969 4.164062 24.90625 C 4.152344 24.882812 4.152344 24.859375 4.140625 24.820312 C 4.128906 24.796875 4.117188 24.761719 4.101562 24.734375 C 4.066406 24.648438 4.03125 24.578125 3.980469 24.503906 C 3.945312 24.441406 3.90625 24.382812 3.859375 24.332031 C 3.640625 24.050781 3.335938 23.832031 2.980469 23.722656 C 2.808594 23.660156 2.640625 23.613281 2.480469 23.574219 C 2.417969 23.5625 2.359375 23.539062 2.308594 23.527344 C 2.296875 23.527344 2.285156 23.515625 2.285156 23.515625 C 2.296875 23.515625 2.296875 23.503906 2.308594 23.503906 C 2.40625 23.464844 2.515625 23.441406 2.613281 23.417969 C 2.773438 23.378906 2.945312 23.332031 3.101562 23.269531 C 3.652344 23.050781 4.066406 22.585938 4.214844 22.015625 C 4.238281 21.902344 4.273438 21.804688 4.3125 21.695312 C 4.324219 21.648438 4.347656 21.5625 4.371094 21.476562 Z M 3.101562 9.371094 L 19.628906 3.414062 L 20.945312 6.441406 C 20.910156 6.511719 20.871094 6.597656 20.847656 6.671875 C 20.617188 7.292969 20.675781 7.992188 21.019531 8.613281 L 24.15625 14.410156 C 23.339844 14.738281 22.519531 15.058594 21.738281 15.375 C 21.703125 15.386719 21.667969 15.398438 21.628906 15.421875 C 21.59375 15.433594 21.554688 15.449219 21.519531 15.472656 C 20.605469 15.839844 19.738281 16.179688 18.96875 16.484375 C 18.894531 16.507812 18.824219 16.546875 18.738281 16.570312 C 17.675781 16.996094 16.820312 17.328125 16.355469 17.523438 C 16.125 17.558594 15.894531 17.632812 15.648438 17.742188 C 15.515625 17.804688 15.40625 17.863281 15.296875 17.949219 L 15.28125 17.949219 C 14.976562 18.167969 14.746094 18.449219 14.585938 18.765625 C 14.539062 18.863281 14.488281 18.976562 14.453125 19.085938 C 14.246094 19.683594 14.210938 20.367188 14.257812 21.023438 C 14.269531 21.109375 14.269531 21.195312 14.28125 21.28125 C 14.378906 22.125 14.585938 22.894531 14.695312 23.320312 L 14.695312 23.332031 C 14.734375 23.464844 14.757812 23.589844 14.78125 23.722656 C 14.792969 23.757812 14.792969 23.808594 14.808594 23.84375 C 14.820312 23.882812 14.820312 23.929688 14.820312 23.964844 C 14.832031 24.089844 14.84375 24.222656 14.855469 24.34375 C 14.722656 24.273438 14.550781 24.199219 14.355469 24.148438 C 14.292969 24.125 14.222656 24.113281 14.160156 24.101562 C 14.085938 24.089844 14.027344 24.0625 13.953125 24.050781 C 13.78125 24.015625 13.585938 23.980469 13.390625 23.953125 L 13.390625 21.097656 C 13.390625 21.085938 13.390625 21.0625 13.390625 21.050781 L 13.390625 19.964844 C 13.378906 19.828125 13.304688 19.707031 13.171875 19.597656 C 13.097656 19.535156 13.011719 19.488281 12.914062 19.4375 C 12.339844 19.144531 11.351562 19 10.390625 19 C 10.351562 19 10.304688 19 10.265625 19 C 10.21875 19 10.179688 19 10.132812 19 C 8.765625 19.035156 7.398438 19.378906 7.386719 19.988281 L 7.386719 20.292969 C 5.019531 15.421875 3.359375 10.199219 3.101562 9.371094 Z M 29.515625 2.71875 C 29.550781 2.707031 29.597656 2.695312 29.636719 2.679688 C 29.890625 2.597656 30.171875 2.546875 30.441406 2.546875 C 31.417969 2.546875 32.40625 3.085938 32.882812 3.960938 L 37.886719 13.214844 C 37.996094 13.421875 38.082031 13.640625 38.117188 13.859375 C 38.128906 13.921875 38.144531 13.996094 38.144531 14.054688 C 38.144531 14.117188 38.15625 14.179688 38.15625 14.238281 C 38.15625 14.484375 38.117188 14.714844 38.03125 14.945312 C 37.835938 15.484375 37.433594 15.898438 36.875 16.132812 C 36.847656 16.144531 36.835938 16.15625 36.8125 16.15625 L 36.582031 16.253906 L 35.886719 16.535156 L 30.539062 18.632812 C 29.320312 19.109375 27.804688 18.558594 27.171875 17.386719 L 25.425781 14.167969 L 25.363281 14.054688 L 25.304688 13.945312 L 22.15625 8.136719 C 21.847656 7.574219 21.800781 6.953125 21.996094 6.402344 C 22.203125 5.855469 22.628906 5.414062 23.214844 5.195312 L 28.5625 3.097656 L 29.292969 2.816406 Z M 14.820312 26.25 C 14.78125 26.273438 14.734375 26.296875 14.683594 26.320312 C 14.648438 26.335938 14.613281 26.359375 14.574219 26.371094 C 14.515625 26.394531 14.441406 26.417969 14.367188 26.445312 C 14.304688 26.46875 14.234375 26.492188 14.160156 26.503906 C 13.671875 26.640625 13.039062 26.726562 12.304688 26.726562 C 12 26.726562 11.71875 26.710938 11.449219 26.6875 C 11.4375 26.6875 11.4375 26.6875 11.425781 26.6875 C 11.378906 26.6875 11.316406 26.675781 11.269531 26.675781 C 11.207031 26.664062 11.144531 26.664062 11.085938 26.652344 C 10.707031 26.589844 10.390625 26.515625 10.132812 26.417969 C 10.121094 26.417969 10.121094 26.417969 10.109375 26.40625 C 10.011719 26.371094 9.925781 26.335938 9.851562 26.296875 L 9.851562 25.492188 C 9.925781 25.527344 10.011719 25.566406 10.109375 25.589844 C 10.167969 25.613281 10.21875 25.625 10.277344 25.652344 C 10.339844 25.664062 10.402344 25.6875 10.460938 25.699219 C 10.523438 25.710938 10.585938 25.722656 10.644531 25.738281 C 10.890625 25.785156 11.144531 25.820312 11.414062 25.847656 C 11.695312 25.871094 12 25.882812 12.292969 25.882812 C 13.207031 25.882812 14.160156 25.75 14.734375 25.480469 C 14.78125 25.457031 14.832031 25.429688 14.878906 25.40625 C 14.929688 25.382812 14.976562 25.347656 15.027344 25.308594 C 15.039062 25.296875 15.039062 25.296875 15.050781 25.285156 L 15.050781 25.929688 C 15.050781 25.945312 15.050781 25.96875 15.039062 25.980469 C 15.027344 26.015625 15.003906 26.066406 14.964844 26.101562 C 14.941406 26.164062 14.890625 26.210938 14.820312 26.25 Z M 9.300781 25.125 C 9.265625 25.152344 9.230469 25.164062 9.179688 25.1875 C 8.703125 25.40625 7.863281 25.566406 6.863281 25.566406 C 6.554688 25.566406 6.277344 25.554688 6.007812 25.527344 C 5.996094 25.527344 5.996094 25.527344 5.984375 25.527344 C 5.484375 25.480469 5.054688 25.382812 4.726562 25.273438 C 4.738281 25.222656 4.761719 25.175781 4.773438 25.113281 C 4.773438 25.113281 4.773438 25.101562 4.773438 25.101562 C 4.785156 25.066406 4.800781 25.015625 4.8125 24.980469 C 4.824219 24.941406 4.847656 24.894531 4.859375 24.859375 C 4.910156 24.746094 4.96875 24.636719 5.042969 24.539062 C 5.324219 24.613281 5.640625 24.664062 5.96875 24.6875 C 6.25 24.710938 6.554688 24.722656 6.847656 24.722656 C 7.117188 24.722656 7.398438 24.710938 7.667969 24.6875 C 7.726562 24.6875 7.800781 24.675781 7.863281 24.664062 C 7.9375 24.648438 8.007812 24.648438 8.070312 24.636719 C 8.117188 24.625 8.179688 24.625 8.230469 24.613281 C 8.667969 24.539062 9.070312 24.429688 9.351562 24.285156 C 9.386719 24.273438 9.425781 24.246094 9.460938 24.222656 C 9.484375 24.210938 9.523438 24.1875 9.546875 24.175781 C 9.546875 24.175781 9.546875 24.175781 9.558594 24.175781 C 9.558594 24.175781 9.570312 24.160156 9.570312 24.160156 C 9.582031 24.148438 9.59375 24.136719 9.621094 24.125 L 9.621094 24.761719 C 9.621094 24.773438 9.621094 24.796875 9.609375 24.808594 C 9.609375 24.820312 9.59375 24.832031 9.59375 24.84375 C 9.582031 24.871094 9.570312 24.882812 9.558594 24.90625 C 9.558594 24.917969 9.546875 24.917969 9.535156 24.929688 C 9.535156 24.941406 9.523438 24.941406 9.523438 24.957031 C 9.511719 24.96875 9.511719 24.96875 9.496094 24.980469 C 9.484375 24.992188 9.472656 24.992188 9.460938 25.003906 C 9.449219 25.015625 9.4375 25.015625 9.425781 25.027344 C 9.414062 25.039062 9.386719 25.054688 9.375 25.066406 C 9.375 25.066406 9.363281 25.066406 9.363281 25.078125 C 9.339844 25.113281 9.328125 25.113281 9.300781 25.125 Z M 10.402344 23.183594 C 10.597656 23.183594 10.792969 23.171875 10.988281 23.160156 C 11.242188 23.148438 11.5 23.113281 11.742188 23.074219 C 11.78125 23.0625 11.828125 23.0625 11.867188 23.050781 C 11.902344 23.039062 11.949219 23.039062 11.988281 23.027344 C 12.488281 22.929688 12.902344 22.769531 13.148438 22.574219 L 13.148438 23.183594 C 13.148438 23.210938 13.136719 23.234375 13.121094 23.269531 C 13.109375 23.308594 13.074219 23.355469 13.023438 23.394531 C 12.878906 23.515625 12.621094 23.648438 12.257812 23.746094 C 12.21875 23.757812 12.183594 23.769531 12.132812 23.785156 C 12.097656 23.796875 12.046875 23.808594 12.011719 23.808594 C 11.558594 23.90625 11 23.980469 10.375 23.980469 C 10.195312 23.980469 10.011719 23.980469 9.839844 23.964844 L 9.839844 23.710938 C 9.828125 23.613281 9.789062 23.515625 9.707031 23.429688 C 9.667969 23.394531 9.621094 23.34375 9.570312 23.308594 C 9.558594 23.296875 9.546875 23.28125 9.523438 23.28125 C 9.472656 23.246094 9.425781 23.222656 9.363281 23.199219 C 9.328125 23.171875 9.289062 23.160156 9.242188 23.136719 C 9.328125 23.148438 9.425781 23.160156 9.511719 23.171875 C 9.609375 23.183594 9.71875 23.183594 9.828125 23.199219 C 10.046875 23.183594 10.230469 23.183594 10.402344 23.183594 Z M 13.160156 24.050781 L 13.160156 24.246094 C 13.160156 24.296875 13.148438 24.332031 13.109375 24.382812 C 13.023438 24.503906 12.816406 24.625 12.523438 24.722656 C 12.488281 24.734375 12.453125 24.746094 12.402344 24.761719 C 12.269531 24.796875 12.132812 24.832031 11.976562 24.871094 C 11.707031 24.929688 11.402344 24.96875 11.074219 24.992188 C 10.851562 25.003906 10.632812 25.015625 10.390625 25.015625 C 10.304688 25.015625 10.21875 25.015625 10.132812 25.015625 C 10.082031 25.015625 10.023438 25.015625 9.972656 25.003906 C 9.9375 25.003906 9.886719 25.003906 9.851562 25.003906 L 9.851562 24.84375 C 9.851562 24.84375 9.851562 24.84375 9.851562 24.832031 C 9.851562 24.820312 9.851562 24.808594 9.851562 24.796875 L 9.851562 24.222656 C 9.914062 24.222656 9.972656 24.234375 10.023438 24.234375 C 10.144531 24.234375 10.265625 24.246094 10.390625 24.246094 C 10.390625 24.246094 10.402344 24.246094 10.402344 24.246094 C 11 24.246094 11.609375 24.1875 12.121094 24.0625 C 12.160156 24.050781 12.207031 24.039062 12.242188 24.039062 C 12.257812 24.039062 12.269531 24.039062 12.28125 24.027344 C 12.304688 24.015625 12.339844 24.015625 12.367188 24.003906 C 12.464844 23.980469 12.5625 23.941406 12.648438 23.90625 C 12.855469 23.832031 13.023438 23.734375 13.148438 23.636719 L 13.148438 24.050781 Z M 15.308594 26.285156 L 15.308594 26.003906 C 15.308594 25.992188 15.308594 25.96875 15.308594 25.957031 L 15.308594 24.871094 C 15.296875 24.746094 15.234375 24.625 15.113281 24.527344 C 15.113281 24.308594 15.101562 24.101562 15.0625 23.894531 C 15.0625 23.855469 15.050781 23.808594 15.039062 23.769531 C 15.027344 23.734375 15.027344 23.6875 15.015625 23.648438 C 14.988281 23.527344 14.964844 23.40625 14.929688 23.28125 L 14.929688 23.269531 C 14.808594 22.84375 14.597656 22.050781 14.515625 21.195312 C 14.5 21.109375 14.5 21.023438 14.488281 20.941406 C 14.441406 20.257812 14.5 19.546875 14.757812 18.976562 C 14.808594 18.851562 14.878906 18.742188 14.953125 18.632812 C 15.148438 18.363281 15.40625 18.132812 15.746094 17.972656 C 15.769531 17.960938 15.796875 17.949219 15.820312 17.9375 L 15.980469 17.9375 C 15.992188 17.9375 15.992188 17.9375 16.003906 17.9375 C 16.125 17.9375 16.273438 17.972656 16.441406 18.046875 C 16.539062 18.082031 16.636719 18.132812 16.734375 18.195312 C 17.210938 18.449219 17.796875 18.878906 18.417969 19.390625 C 18.492188 19.449219 18.566406 19.511719 18.640625 19.574219 C 19.273438 20.097656 19.933594 20.695312 20.554688 21.269531 C 20.605469 21.316406 20.652344 21.367188 20.703125 21.402344 C 20.738281 21.441406 20.761719 21.464844 20.800781 21.5 C 20.835938 21.539062 20.859375 21.5625 20.898438 21.597656 C 21.277344 21.953125 21.628906 22.292969 21.933594 22.601562 C 22.082031 22.746094 22.214844 22.878906 22.335938 23.003906 C 22.375 23.039062 22.398438 23.0625 22.421875 23.085938 C 22.460938 23.125 22.484375 23.148438 22.507812 23.171875 C 22.519531 23.183594 22.519531 23.183594 22.53125 23.199219 L 22.15625 23.355469 L 20.457031 24.078125 L 18.164062 25.054688 Z M 7.644531 20.769531 L 7.644531 20.390625 C 7.789062 20.5 7.984375 20.597656 8.214844 20.671875 C 8.582031 20.792969 9.046875 20.878906 9.535156 20.925781 C 9.816406 20.953125 10.121094 20.964844 10.414062 20.964844 C 10.585938 20.964844 10.753906 20.964844 10.9375 20.953125 C 10.988281 20.953125 11.023438 20.953125 11.058594 20.941406 C 11.097656 20.941406 11.144531 20.925781 11.183594 20.925781 C 12.023438 20.855469 12.792969 20.671875 13.171875 20.378906 L 13.171875 21.023438 C 13.171875 21.039062 13.171875 21.0625 13.160156 21.074219 C 13.148438 21.109375 13.121094 21.160156 13.085938 21.195312 C 13.050781 21.234375 13 21.28125 12.925781 21.316406 C 12.648438 21.488281 12.144531 21.648438 11.5 21.734375 C 11.460938 21.734375 11.414062 21.746094 11.378906 21.746094 C 11.339844 21.746094 11.292969 21.757812 11.253906 21.757812 C 11 21.78125 10.71875 21.792969 10.414062 21.792969 C 10.109375 21.792969 9.828125 21.78125 9.558594 21.757812 C 9.546875 21.757812 9.546875 21.757812 9.535156 21.757812 C 9.007812 21.707031 8.570312 21.609375 8.242188 21.488281 C 8.230469 21.488281 8.230469 21.488281 8.214844 21.476562 C 8.117188 21.441406 8.035156 21.402344 7.960938 21.367188 C 7.949219 21.355469 7.921875 21.355469 7.910156 21.34375 C 7.851562 21.304688 7.789062 21.257812 7.753906 21.21875 C 7.753906 21.21875 7.742188 21.207031 7.742188 21.207031 C 7.703125 21.171875 7.691406 21.136719 7.667969 21.097656 C 7.667969 21.085938 7.65625 21.074219 7.65625 21.074219 L 7.65625 21.050781 Z M 7.644531 21.453125 C 7.679688 21.488281 7.726562 21.511719 7.777344 21.539062 C 7.839844 21.574219 7.886719 21.597656 7.960938 21.636719 C 8.019531 21.660156 8.082031 21.683594 8.144531 21.707031 C 8.179688 21.722656 8.203125 21.734375 8.242188 21.746094 C 8.605469 21.867188 9.070312 21.953125 9.558594 22 C 9.839844 22.027344 10.121094 22.039062 10.414062 22.039062 C 10.71875 22.039062 11.035156 22.027344 11.339844 21.988281 C 11.378906 21.988281 11.425781 21.976562 11.460938 21.976562 C 11.5 21.976562 11.546875 21.964844 11.585938 21.964844 C 11.730469 21.941406 11.878906 21.917969 12.011719 21.890625 C 12.5 21.792969 12.914062 21.636719 13.171875 21.441406 L 13.171875 22.148438 C 13.171875 22.171875 13.171875 22.195312 13.160156 22.222656 C 13.148438 22.257812 13.109375 22.308594 13.074219 22.34375 C 12.890625 22.515625 12.488281 22.671875 11.925781 22.78125 C 11.890625 22.796875 11.839844 22.796875 11.804688 22.808594 C 11.769531 22.820312 11.71875 22.820312 11.683594 22.832031 C 11.304688 22.894531 10.890625 22.929688 10.425781 22.929688 C 10.121094 22.929688 9.839844 22.917969 9.570312 22.894531 C 9.265625 22.867188 8.984375 22.820312 8.742188 22.757812 C 8.679688 22.746094 8.632812 22.734375 8.570312 22.722656 C 8.507812 22.710938 8.460938 22.699219 8.410156 22.671875 C 8.351562 22.660156 8.300781 22.636719 8.253906 22.625 C 8.046875 22.550781 7.886719 22.464844 7.789062 22.367188 C 7.742188 22.332031 7.714844 22.28125 7.691406 22.246094 C 7.679688 22.234375 7.679688 22.210938 7.667969 22.195312 L 7.667969 22.125 Z M 7.644531 22.601562 C 7.742188 22.671875 7.863281 22.746094 7.996094 22.808594 C 7.886719 22.796875 7.765625 22.78125 7.644531 22.769531 Z M 4.101562 26.359375 C 4.25 26.46875 4.457031 26.578125 4.6875 26.652344 C 5.054688 26.773438 5.519531 26.859375 6.007812 26.90625 C 6.105469 26.921875 6.214844 26.921875 6.324219 26.933594 C 6.507812 26.945312 6.691406 26.945312 6.863281 26.945312 C 7.058594 26.945312 7.253906 26.933594 7.449219 26.921875 C 8.167969 26.871094 8.851562 26.738281 9.300781 26.53125 C 9.351562 26.503906 9.386719 26.492188 9.425781 26.46875 C 9.472656 26.445312 9.511719 26.417969 9.546875 26.394531 C 9.546875 26.394531 9.558594 26.382812 9.558594 26.382812 C 9.582031 26.371094 9.59375 26.359375 9.609375 26.347656 L 9.609375 26.945312 C 9.609375 26.96875 9.59375 26.992188 9.582031 27.03125 C 9.570312 27.054688 9.558594 27.078125 9.535156 27.101562 C 9.523438 27.117188 9.511719 27.140625 9.484375 27.152344 C 9.472656 27.164062 9.449219 27.175781 9.4375 27.1875 C 9.398438 27.214844 9.375 27.238281 9.328125 27.261719 C 8.886719 27.519531 7.972656 27.726562 6.835938 27.726562 C 6.53125 27.726562 6.25 27.714844 5.984375 27.6875 C 5.445312 27.640625 4.996094 27.542969 4.664062 27.421875 C 4.457031 27.347656 4.3125 27.261719 4.199219 27.175781 C 4.152344 27.140625 4.117188 27.089844 4.089844 27.054688 C 4.078125 27.03125 4.066406 27.019531 4.066406 26.992188 L 4.066406 26.933594 Z M 31.296875 25.164062 L 31.394531 25.382812 L 29.820312 26.054688 L 29.722656 25.832031 Z M 40.730469 21.136719 L 40.828125 21.355469 L 39.253906 22.027344 L 39.15625 21.804688 Z M 34.445312 23.820312 L 34.542969 24.039062 L 32.96875 24.710938 L 32.871094 24.492188 Z M 37.582031 22.476562 L 37.679688 22.699219 L 36.105469 23.367188 L 36.007812 23.148438 Z M 23.59375 6.527344 C 23.410156 6.636719 23.277344 6.804688 23.226562 7.015625 C 23.179688 7.222656 23.203125 7.441406 23.3125 7.613281 L 24.121094 9.113281 C 24.300781 9.441406 24.65625 9.636719 25.011719 9.636719 C 25.132812 9.636719 25.253906 9.613281 25.363281 9.578125 L 25.816406 9.394531 L 32.246094 6.867188 C 32.296875 6.855469 32.332031 6.832031 32.382812 6.804688 C 32.566406 6.695312 32.699219 6.527344 32.75 6.316406 C 32.796875 6.109375 32.773438 5.890625 32.664062 5.71875 L 31.855469 4.21875 C 31.613281 3.78125 31.089844 3.585938 30.601562 3.753906 L 30.148438 3.9375 L 23.714844 6.464844 C 23.679688 6.476562 23.644531 6.5 23.59375 6.527344 Z M 23.730469 6.734375 C 23.753906 6.722656 23.789062 6.695312 23.828125 6.683594 L 23.898438 6.648438 L 30.246094 4.15625 C 30.332031 4.121094 30.429688 4.109375 30.515625 4.109375 C 30.796875 4.109375 31.050781 4.253906 31.199219 4.511719 L 32.003906 6.011719 C 32.078125 6.136719 32.101562 6.292969 32.066406 6.429688 C 32.027344 6.574219 31.929688 6.695312 31.808594 6.769531 C 31.785156 6.78125 31.746094 6.804688 31.722656 6.804688 L 25.742188 9.148438 L 25.339844 9.308594 L 25.292969 9.332031 C 25.230469 9.355469 25.15625 9.371094 25.097656 9.371094 C 24.789062 9.394531 24.496094 9.246094 24.339844 8.980469 L 23.535156 7.476562 C 23.460938 7.355469 23.4375 7.195312 23.472656 7.0625 C 23.507812 6.929688 23.59375 6.804688 23.730469 6.734375 C 23.714844 6.734375 23.714844 6.734375 23.730469 6.734375 Z M 27.804688 11.445312 C 27.925781 11.140625 27.914062 10.796875 27.757812 10.480469 C 27.597656 10.175781 27.328125 9.929688 26.988281 9.785156 C 26.644531 9.648438 26.28125 9.636719 25.949219 9.761719 C 25.851562 9.796875 25.765625 9.84375 25.679688 9.894531 C 25.363281 10.003906 25.097656 10.222656 24.960938 10.554688 C 24.71875 11.175781 25.082031 11.894531 25.765625 12.175781 C 25.949219 12.25 26.132812 12.285156 26.316406 12.285156 C 26.511719 12.285156 26.707031 12.25 26.878906 12.164062 C 27.292969 12.089844 27.648438 11.835938 27.804688 11.445312 Z M 26.769531 9.980469 C 26.804688 9.992188 26.851562 10.003906 26.890625 10.015625 C 27.171875 10.125 27.402344 10.332031 27.523438 10.589844 C 27.648438 10.847656 27.671875 11.113281 27.574219 11.359375 C 27.550781 11.40625 27.523438 11.457031 27.5 11.492188 C 27.464844 11.566406 27.414062 11.628906 27.355469 11.675781 C 27.304688 11.726562 27.242188 11.761719 27.195312 11.796875 C 26.902344 11.96875 26.523438 12.003906 26.15625 11.859375 C 25.875 11.75 25.644531 11.542969 25.523438 11.285156 C 25.402344 11.03125 25.375 10.761719 25.472656 10.515625 C 25.570312 10.273438 25.765625 10.089844 26.035156 9.992188 C 26.085938 9.980469 26.132812 9.957031 26.195312 9.957031 C 26.265625 9.941406 26.351562 9.929688 26.425781 9.929688 C 26.4375 9.929688 26.449219 9.929688 26.460938 9.929688 C 26.558594 9.929688 26.65625 9.941406 26.769531 9.980469 Z M 30.148438 8.550781 C 29.808594 8.417969 29.441406 8.40625 29.109375 8.527344 C 29.011719 8.5625 28.929688 8.613281 28.84375 8.660156 C 28.832031 8.660156 28.816406 8.660156 28.816406 8.675781 C 28.488281 8.785156 28.246094 9.015625 28.121094 9.320312 C 28 9.625 28.023438 9.957031 28.171875 10.261719 C 28.332031 10.566406 28.597656 10.808594 28.929688 10.945312 C 29.109375 11.015625 29.292969 11.054688 29.476562 11.054688 C 29.671875 11.054688 29.867188 11.015625 30.039062 10.933594 C 30.441406 10.859375 30.796875 10.601562 30.953125 10.210938 C 31.222656 9.578125 30.855469 8.832031 30.148438 8.550781 Z M 30.746094 10.113281 C 30.722656 10.164062 30.699219 10.210938 30.671875 10.25 C 30.636719 10.320312 30.589844 10.382812 30.527344 10.429688 C 30.476562 10.480469 30.417969 10.515625 30.367188 10.554688 C 30.074219 10.722656 29.695312 10.761719 29.332031 10.613281 C 28.746094 10.382812 28.441406 9.785156 28.648438 9.273438 C 28.746094 9.027344 28.941406 8.84375 29.207031 8.746094 C 29.257812 8.734375 29.304688 8.710938 29.367188 8.710938 C 29.441406 8.699219 29.527344 8.6875 29.597656 8.6875 C 29.613281 8.6875 29.625 8.6875 29.636719 8.6875 C 29.746094 8.6875 29.855469 8.710938 29.953125 8.734375 C 29.988281 8.746094 30.039062 8.757812 30.074219 8.773438 C 30.636719 9.003906 30.941406 9.613281 30.746094 10.113281 Z M 32.027344 7.40625 C 31.710938 7.515625 31.441406 7.734375 31.308594 8.0625 C 31.0625 8.6875 31.429688 9.40625 32.113281 9.6875 C 32.296875 9.761719 32.480469 9.796875 32.664062 9.796875 C 32.859375 9.796875 33.042969 9.761719 33.210938 9.6875 C 33.285156 9.675781 33.359375 9.648438 33.433594 9.625 C 33.761719 9.503906 34.015625 9.273438 34.140625 8.964844 C 34.1875 8.832031 34.210938 8.699219 34.210938 8.5625 C 34.210938 8.453125 34.199219 8.332031 34.164062 8.222656 C 34.140625 8.148438 34.113281 8.0625 34.078125 7.992188 C 34.03125 7.894531 33.96875 7.808594 33.894531 7.722656 C 33.808594 7.625 33.726562 7.539062 33.628906 7.476562 C 33.53125 7.40625 33.433594 7.355469 33.308594 7.308594 C 32.96875 7.171875 32.601562 7.160156 32.273438 7.28125 C 32.199219 7.308594 32.113281 7.355469 32.027344 7.40625 Z M 33.113281 7.488281 C 33.152344 7.503906 33.199219 7.515625 33.238281 7.527344 C 33.515625 7.636719 33.75 7.84375 33.871094 8.101562 C 33.992188 8.355469 34.015625 8.625 33.921875 8.871094 C 33.894531 8.917969 33.871094 8.964844 33.847656 9.003906 C 33.808594 9.0625 33.761719 9.136719 33.699219 9.1875 C 33.652344 9.234375 33.601562 9.273438 33.542969 9.308594 C 33.480469 9.34375 33.433594 9.371094 33.359375 9.394531 C 33.089844 9.492188 32.785156 9.480469 32.503906 9.371094 C 32.222656 9.257812 31.992188 9.050781 31.871094 8.796875 C 31.746094 8.539062 31.722656 8.269531 31.820312 8.027344 C 31.917969 7.78125 32.113281 7.601562 32.382812 7.503906 C 32.429688 7.488281 32.480469 7.464844 32.539062 7.464844 C 32.613281 7.453125 32.699219 7.441406 32.773438 7.441406 C 32.785156 7.441406 32.796875 7.441406 32.808594 7.441406 C 32.90625 7.441406 33.003906 7.453125 33.113281 7.488281 Z M 28.585938 14.863281 C 28.914062 14.738281 29.171875 14.507812 29.292969 14.203125 C 29.488281 13.703125 29.304688 13.140625 28.878906 12.785156 C 28.84375 12.761719 28.804688 12.726562 28.769531 12.703125 C 28.734375 12.675781 28.683594 12.652344 28.636719 12.628906 C 28.585938 12.605469 28.539062 12.578125 28.476562 12.554688 C 28.023438 12.371094 27.535156 12.433594 27.183594 12.652344 C 27.171875 12.652344 27.160156 12.652344 27.144531 12.664062 C 26.816406 12.785156 26.574219 13.007812 26.449219 13.3125 C 26.425781 13.386719 26.402344 13.457031 26.390625 13.519531 C 26.378906 13.566406 26.378906 13.617188 26.378906 13.652344 C 26.378906 13.703125 26.378906 13.738281 26.378906 13.789062 C 26.390625 13.945312 26.425781 14.105469 26.511719 14.25 C 26.671875 14.558594 26.9375 14.800781 27.269531 14.933594 C 27.453125 15.007812 27.632812 15.042969 27.816406 15.042969 C 28.011719 15.042969 28.195312 15.007812 28.367188 14.933594 C 28.441406 14.910156 28.511719 14.886719 28.585938 14.863281 Z M 28.257812 12.726562 C 28.269531 12.726562 28.292969 12.738281 28.304688 12.738281 C 28.328125 12.75 28.355469 12.75 28.378906 12.761719 C 28.414062 12.773438 28.441406 12.785156 28.464844 12.800781 C 28.511719 12.824219 28.5625 12.847656 28.597656 12.871094 C 29.027344 13.152344 29.234375 13.652344 29.0625 14.09375 C 29.039062 14.140625 29.011719 14.191406 28.988281 14.226562 C 28.953125 14.289062 28.902344 14.363281 28.84375 14.410156 C 28.792969 14.460938 28.746094 14.496094 28.683594 14.53125 C 28.621094 14.570312 28.574219 14.59375 28.5 14.617188 C 28.234375 14.714844 27.925781 14.703125 27.648438 14.59375 C 27.183594 14.410156 26.890625 13.984375 26.902344 13.566406 C 26.902344 13.519531 26.902344 13.46875 26.914062 13.433594 C 26.925781 13.386719 26.9375 13.335938 26.949219 13.289062 C 26.949219 13.273438 26.949219 13.273438 26.964844 13.261719 C 27.085938 12.957031 27.355469 12.761719 27.683594 12.703125 C 27.769531 12.6875 27.855469 12.675781 27.941406 12.675781 C 28.039062 12.675781 28.148438 12.703125 28.257812 12.726562 Z M 30.332031 11.40625 C 30.015625 11.519531 29.746094 11.738281 29.613281 12.066406 C 29.585938 12.128906 29.574219 12.1875 29.5625 12.25 C 29.550781 12.296875 29.550781 12.347656 29.539062 12.382812 C 29.539062 12.433594 29.539062 12.46875 29.539062 12.519531 C 29.5625 13.007812 29.890625 13.484375 30.429688 13.691406 C 30.613281 13.761719 30.796875 13.800781 30.980469 13.800781 C 31.171875 13.800781 31.355469 13.761719 31.527344 13.691406 C 31.601562 13.679688 31.675781 13.652344 31.746094 13.628906 C 32.078125 13.507812 32.332031 13.273438 32.457031 12.96875 C 32.578125 12.664062 32.566406 12.324219 32.40625 12.003906 C 32.308594 11.824219 32.175781 11.652344 32.003906 11.519531 C 31.96875 11.492188 31.929688 11.457031 31.882812 11.433594 C 31.832031 11.40625 31.796875 11.382812 31.746094 11.359375 C 31.710938 11.347656 31.675781 11.324219 31.636719 11.308594 C 31.296875 11.175781 30.929688 11.164062 30.601562 11.285156 C 30.503906 11.308594 30.417969 11.347656 30.332031 11.40625 Z M 31.417969 11.480469 C 31.464844 11.492188 31.503906 11.503906 31.539062 11.53125 C 31.550781 11.53125 31.5625 11.542969 31.589844 11.554688 C 31.636719 11.578125 31.6875 11.601562 31.734375 11.628906 C 31.929688 11.75 32.089844 11.90625 32.1875 12.101562 C 32.308594 12.359375 32.332031 12.628906 32.234375 12.871094 C 32.210938 12.921875 32.1875 12.96875 32.164062 13.007812 C 32.125 13.066406 32.078125 13.140625 32.015625 13.191406 C 31.96875 13.238281 31.917969 13.273438 31.855469 13.3125 C 31.796875 13.347656 31.746094 13.371094 31.675781 13.398438 C 31.40625 13.496094 31.101562 13.484375 30.820312 13.371094 C 30.539062 13.261719 30.308594 13.054688 30.183594 12.800781 C 30.101562 12.640625 30.074219 12.46875 30.074219 12.3125 C 30.074219 12.261719 30.085938 12.214844 30.101562 12.175781 C 30.113281 12.128906 30.125 12.089844 30.136719 12.042969 C 30.136719 12.042969 30.136719 12.03125 30.148438 12.03125 C 30.246094 11.796875 30.441406 11.617188 30.699219 11.519531 C 30.746094 11.503906 30.796875 11.480469 30.855469 11.480469 C 30.929688 11.46875 31.015625 11.457031 31.089844 11.457031 C 31.101562 11.457031 31.113281 11.457031 31.125 11.457031 C 31.210938 11.445312 31.320312 11.457031 31.417969 11.480469 Z M 35.1875 12.617188 C 35.089844 12.652344 35.007812 12.703125 34.921875 12.75 C 34.910156 12.75 34.894531 12.75 34.894531 12.761719 C 34.566406 12.871094 34.324219 13.105469 34.199219 13.410156 C 34.078125 13.714844 34.101562 14.042969 34.25 14.347656 C 34.40625 14.652344 34.675781 14.898438 35.007812 15.03125 C 35.1875 15.105469 35.371094 15.140625 35.554688 15.140625 C 35.75 15.140625 35.933594 15.105469 36.105469 15.03125 C 36.179688 15.019531 36.25 14.996094 36.324219 14.972656 C 36.652344 14.847656 36.910156 14.617188 37.03125 14.3125 C 37.070312 14.203125 37.09375 14.09375 37.105469 13.984375 C 37.117188 13.847656 37.105469 13.714844 37.070312 13.582031 C 37.042969 13.496094 37.019531 13.421875 36.972656 13.335938 C 36.921875 13.238281 36.859375 13.152344 36.789062 13.066406 C 36.703125 12.96875 36.617188 12.882812 36.519531 12.824219 C 36.421875 12.75 36.324219 12.703125 36.203125 12.652344 C 35.871094 12.519531 35.507812 12.507812 35.1875 12.617188 Z M 36.765625 13.445312 C 36.886719 13.703125 36.910156 13.972656 36.8125 14.214844 C 36.789062 14.265625 36.765625 14.3125 36.738281 14.347656 C 36.703125 14.421875 36.652344 14.484375 36.59375 14.53125 C 36.542969 14.582031 36.496094 14.617188 36.433594 14.652344 C 36.375 14.691406 36.324219 14.714844 36.25 14.738281 C 35.984375 14.835938 35.675781 14.824219 35.398438 14.714844 C 34.8125 14.484375 34.503906 13.886719 34.714844 13.371094 C 34.8125 13.128906 35.007812 12.945312 35.273438 12.847656 C 35.324219 12.835938 35.371094 12.8125 35.433594 12.8125 C 35.507812 12.800781 35.59375 12.785156 35.664062 12.785156 C 35.675781 12.785156 35.691406 12.785156 35.703125 12.785156 C 35.8125 12.785156 35.921875 12.8125 36.019531 12.835938 C 36.054688 12.847656 36.105469 12.859375 36.140625 12.871094 C 36.410156 12.996094 36.640625 13.191406 36.765625 13.445312 Z M 32.320312 14.070312 L 32.003906 14.191406 L 30.574219 14.75 L 28.867188 15.421875 L 28.550781 15.546875 C 28.488281 15.570312 28.425781 15.59375 28.378906 15.628906 C 28.136719 15.777344 27.964844 16.007812 27.890625 16.277344 C 27.816406 16.558594 27.855469 16.839844 28 17.082031 C 28.257812 17.535156 28.71875 17.789062 29.207031 17.789062 C 29.367188 17.789062 29.527344 17.765625 29.683594 17.707031 L 30.003906 17.582031 L 30.832031 17.253906 L 33.140625 16.351562 L 33.457031 16.230469 C 33.515625 16.203125 33.578125 16.179688 33.628906 16.144531 C 34.140625 15.851562 34.308594 15.191406 34.003906 14.691406 C 33.675781 14.09375 32.96875 13.835938 32.320312 14.070312 Z M 33.796875 15.644531 C 33.738281 15.753906 33.640625 15.851562 33.515625 15.921875 C 33.515625 15.921875 33.503906 15.9375 33.503906 15.9375 C 33.457031 15.960938 33.417969 15.984375 33.371094 15.996094 L 33.054688 16.117188 L 30.539062 17.109375 L 29.917969 17.351562 C 29.390625 17.546875 28.804688 17.328125 28.523438 16.839844 C 28.414062 16.644531 28.378906 16.425781 28.441406 16.214844 C 28.5 16.007812 28.636719 15.824219 28.816406 15.714844 C 28.867188 15.691406 28.902344 15.667969 28.953125 15.65625 L 30.660156 14.984375 L 32.089844 14.421875 L 32.40625 14.300781 C 32.480469 14.277344 32.554688 14.25 32.636719 14.238281 C 32.699219 14.226562 32.75 14.226562 32.808594 14.226562 C 32.945312 14.226562 33.066406 14.25 33.1875 14.300781 C 33.445312 14.386719 33.664062 14.570312 33.796875 14.8125 C 33.945312 15.070312 33.945312 15.398438 33.796875 15.644531 Z M 31.625 20.171875 L 31.722656 20.402344 L 25.707031 22.832031 L 25.449219 22.929688 L 25.351562 22.699219 L 25.609375 22.585938 Z M 8.214844 12.640625 L 7.351562 10.222656 C 7.519531 10.164062 7.703125 10.101562 7.875 10.039062 C 7.898438 10.027344 7.9375 10.066406 7.960938 10.089844 C 8.398438 10.515625 8.839844 10.945312 9.277344 11.371094 C 9.300781 11.394531 9.328125 11.40625 9.363281 11.457031 L 8.742188 9.734375 L 9.179688 9.578125 L 10.046875 11.980469 C 9.902344 12.03125 9.753906 12.078125 9.609375 12.140625 C 9.535156 12.175781 9.4375 12.164062 9.386719 12.089844 C 8.960938 11.675781 8.535156 11.261719 8.105469 10.847656 C 8.082031 10.820312 8.058594 10.808594 8.035156 10.796875 L 8.632812 12.480469 Z M 12.257812 10.25 C 12.425781 10.675781 12.757812 10.894531 13.171875 10.859375 C 13.292969 10.847656 13.414062 10.808594 13.527344 10.761719 C 13.902344 10.625 14.125 10.234375 14.0625 9.84375 C 14.015625 9.648438 13.964844 9.453125 13.890625 9.257812 L 13.878906 9.257812 C 13.820312 9.101562 13.769531 8.941406 13.707031 8.796875 C 13.574219 8.464844 13.257812 8.257812 12.902344 8.269531 C 12.757812 8.285156 12.609375 8.320312 12.476562 8.367188 C 12.0625 8.527344 11.828125 8.980469 11.949219 9.40625 C 12.046875 9.6875 12.144531 9.96875 12.257812 10.25 Z M 12.769531 8.785156 C 12.976562 8.710938 13.207031 8.820312 13.269531 9.027344 C 13.316406 9.148438 13.367188 9.285156 13.402344 9.417969 C 13.453125 9.539062 13.5 9.675781 13.539062 9.796875 C 13.539062 9.796875 13.539062 9.808594 13.539062 9.808594 C 13.609375 10.015625 13.511719 10.25 13.304688 10.320312 C 13.050781 10.417969 12.84375 10.347656 12.746094 10.113281 C 12.632812 9.84375 12.535156 9.578125 12.453125 9.308594 C 12.390625 9.0625 12.511719 8.871094 12.769531 8.785156 Z M 17.761719 9.222656 L 16.894531 6.820312 L 18.503906 6.246094 L 18.664062 6.683594 L 17.515625 7.097656 L 17.722656 7.660156 L 18.6875 7.320312 L 18.835938 7.746094 L 17.871094 8.089844 L 18.066406 8.636719 L 19.214844 8.222656 L 19.371094 8.660156 Z M 15.027344 8.160156 C 14.953125 7.78125 15.171875 7.40625 15.539062 7.269531 C 16.078125 7.050781 16.503906 7.210938 16.808594 7.757812 C 16.664062 7.808594 16.515625 7.867188 16.371094 7.917969 C 16.355469 7.917969 16.320312 7.90625 16.308594 7.894531 C 16.257812 7.855469 16.222656 7.796875 16.175781 7.757812 C 16.039062 7.660156 15.855469 7.648438 15.722656 7.746094 C 15.574219 7.820312 15.503906 7.992188 15.550781 8.148438 C 15.648438 8.464844 15.757812 8.773438 15.882812 9.078125 C 15.953125 9.234375 16.125 9.320312 16.296875 9.273438 C 16.492188 9.246094 16.625 9.089844 16.625 8.894531 C 16.625 8.746094 16.6875 8.699219 16.808594 8.660156 C 16.90625 8.636719 17.003906 8.589844 17.101562 8.550781 C 17.164062 8.953125 17.113281 9.320312 16.773438 9.578125 C 16.566406 9.722656 16.320312 9.796875 16.0625 9.773438 C 15.796875 9.746094 15.550781 9.589844 15.441406 9.332031 C 15.246094 8.953125 15.101562 8.5625 15.027344 8.160156 Z M 9.621094 9.550781 C 9.59375 9.515625 9.570312 9.492188 9.546875 9.441406 C 9.691406 9.394531 9.839844 9.332031 9.972656 9.296875 C 10 9.285156 10.046875 9.320312 10.058594 9.34375 C 10.375 9.761719 10.695312 10.175781 11.011719 10.589844 C 11.035156 10.613281 11.046875 10.640625 11.085938 10.6875 C 11.085938 10.625 11.085938 10.601562 11.085938 10.566406 C 11.058594 10.054688 11.046875 9.527344 11.023438 9.015625 C 11.011719 8.953125 11.046875 8.894531 11.109375 8.882812 C 11.109375 8.882812 11.109375 8.882812 11.121094 8.882812 C 11.242188 8.84375 11.367188 8.796875 11.5 8.746094 C 11.5 8.929688 11.511719 9.101562 11.511719 9.273438 C 11.523438 9.96875 11.546875 10.664062 11.558594 11.347656 C 11.558594 11.421875 11.546875 11.457031 11.476562 11.46875 C 11.378906 11.492188 11.28125 11.566406 11.207031 11.542969 C 11.132812 11.519531 11.085938 11.40625 11.023438 11.335938 C 10.558594 10.75 10.082031 10.152344 9.621094 9.550781 Z M 7.714844 12.8125 L 7.253906 12.980469 L 6.386719 10.578125 L 6.847656 10.40625 Z M 14.734375 10.308594 L 13.867188 7.90625 L 14.332031 7.734375 L 15.199219 10.152344 C 15.050781 10.199219 14.917969 10.25 14.78125 10.296875 C 14.769531 10.296875 14.746094 10.296875 14.734375 10.308594 Z M 32.796875 10.808594 C 32.785156 10.847656 32.773438 10.882812 32.761719 10.933594 C 32.75 10.980469 32.734375 11.03125 32.734375 11.066406 C 32.734375 11.113281 32.722656 11.152344 32.722656 11.199219 C 32.722656 11.382812 32.761719 11.578125 32.859375 11.75 C 33.015625 12.054688 33.285156 12.296875 33.613281 12.433594 C 33.796875 12.507812 33.980469 12.542969 34.175781 12.542969 C 34.335938 12.542969 34.492188 12.519531 34.640625 12.46875 C 34.664062 12.457031 34.699219 12.445312 34.726562 12.433594 C 34.796875 12.421875 34.871094 12.394531 34.945312 12.371094 C 35.1875 12.285156 35.382812 12.128906 35.53125 11.933594 C 35.554688 11.894531 35.578125 11.871094 35.59375 11.835938 C 35.617188 11.796875 35.628906 11.761719 35.640625 11.726562 C 35.640625 11.726562 35.640625 11.714844 35.652344 11.714844 C 35.703125 11.578125 35.726562 11.445312 35.726562 11.308594 C 35.726562 11.199219 35.714844 11.078125 35.675781 10.96875 C 35.628906 10.796875 35.53125 10.625 35.410156 10.480469 C 35.335938 10.382812 35.238281 10.296875 35.128906 10.222656 C 35.03125 10.164062 34.933594 10.101562 34.8125 10.054688 C 34.359375 9.871094 33.871094 9.929688 33.515625 10.152344 C 33.1875 10.261719 32.929688 10.492188 32.796875 10.808594 Z M 34.601562 10.234375 C 34.640625 10.25 34.675781 10.261719 34.726562 10.273438 C 35.300781 10.503906 35.605469 11.078125 35.421875 11.578125 C 35.421875 11.589844 35.410156 11.601562 35.410156 11.617188 C 35.398438 11.640625 35.382812 11.675781 35.371094 11.699219 C 35.359375 11.714844 35.347656 11.738281 35.335938 11.75 C 35.324219 11.761719 35.3125 11.785156 35.300781 11.796875 C 35.261719 11.847656 35.226562 11.894531 35.175781 11.933594 C 35.128906 11.980469 35.078125 12.019531 35.019531 12.054688 C 34.957031 12.089844 34.910156 12.117188 34.835938 12.140625 C 34.566406 12.238281 34.261719 12.226562 33.980469 12.117188 C 33.515625 11.933594 33.222656 11.503906 33.238281 11.089844 C 33.238281 11.054688 33.238281 11.003906 33.25 10.96875 C 33.261719 10.917969 33.261719 10.882812 33.285156 10.847656 C 33.296875 10.820312 33.296875 10.808594 33.308594 10.785156 C 33.433594 10.480469 33.699219 10.285156 34.03125 10.222656 C 34.113281 10.210938 34.199219 10.199219 34.285156 10.199219 C 34.382812 10.1875 34.492188 10.210938 34.601562 10.234375 Z M 34.601562 10.234375 "/></g></g></svg>