<svg version="1.2" xmlns="http://www.w3.org/2000/svg" viewBox="0 0 105 27" width="105" height="26">
	<title>logo-dark</title>
	<defs>
		<clipPath clipPathUnits="userSpaceOnUse" id="cp1">
			<path d="m108.88 0v28h-113.08v-28z"/>
		</clipPath>
		<clipPath clipPathUnits="userSpaceOnUse" id="cp2">
			<path d="m108.66 0v26.97h-112.86v-26.97z"/>
		</clipPath>
		<clipPath clipPathUnits="userSpaceOnUse" id="cp3">
			<path d="m33.23 4.49v16.37h-11.06v-16.37z"/>
		</clipPath>
		<clipPath clipPathUnits="userSpaceOnUse" id="cp4">
			<path d="m27.7 4.49c1.47 0 2.87 0.58 3.91 1.61 1.04 1.05 1.62 2.45 1.62 3.92v5.29c0 1.47-0.58 2.88-1.62 3.92-1.04 1.03-2.44 1.61-3.91 1.61-1.47 0-2.88-0.58-3.91-1.61-1.04-1.04-1.62-2.45-1.62-3.92v-5.29c0-1.47 0.58-2.87 1.62-3.92 1.03-1.03 2.44-1.61 3.91-1.61z"/>
		</clipPath>
		<clipPath clipPathUnits="userSpaceOnUse" id="cp5">
			<path d="m21.05 6.85v11.66h-9.94v-11.66z"/>
		</clipPath>
		<clipPath clipPathUnits="userSpaceOnUse" id="cp6">
			<path d="m16.08 6.85c2.74 0 4.97 2.23 4.97 4.98v1.67c0 2.75-2.23 4.97-4.97 4.97-2.75 0-4.97-2.22-4.97-4.97v-1.67c0-2.75 2.22-4.98 4.97-4.98z"/>
		</clipPath>
	</defs>
	<style>
		.s0 { fill: #ffffff } 
		.s1 { fill: #000000 } 
		.s2 { fill: #5ce1e6 } 
		.s3 { fill: #ad78e0 } 
	</style>
	<g id="b3ea4b45f8">
		<g id="Clip-Path" clip-path="url(#cp1)">
			<g>
				<path fill-rule="evenodd" class="s0" d="m108.9 0v28h-113.1v-28z"/>
			</g>
		</g>
		<g id="Clip-Path" clip-path="url(#cp2)">
			<g>
				<path fill-rule="evenodd" class="s1" d="m108.6 0v27h-112.8v-27z"/>
			</g>
		</g>
		<g id="Clip-Path" clip-path="url(#cp3)">
			<g>
				<g id="Clip-Path" clip-path="url(#cp4)">
					<g>
						<path fill-rule="evenodd" class="s2" d="m33.2 4.5v16.4h-11v-16.4z"/>
					</g>
				</g>
			</g>
		</g>
		<g id="Clip-Path" clip-path="url(#cp5)">
			<g>
				<g id="Clip-Path" clip-path="url(#cp6)">
					<g>
						<path fill-rule="evenodd" class="s3" d="m21 6.9v11.6h-9.9v-11.6z"/>
					</g>
				</g>
			</g>
		</g>
		<g>
			<g>
				<path class="s0" d="m43.4 16.3q0 0.4-0.3 0.7-0.3 0.3-0.7 0.3h-3.8q-0.5 0-1-0.2-0.3-0.3-0.3-0.8v-8.1q0-0.4 0.3-0.7 0.3-0.4 0.8-0.4h3.8q0.5 0 0.8 0.3 0.3 0.3 0.3 0.7 0 0.4-0.3 0.6-0.3 0.3-0.8 0.3h-2.9v2.3h2.7q0.4 0 0.7 0.2 0.3 0.3 0.3 0.7 0 0.4-0.3 0.6-0.3 0.3-0.7 0.3h-2.7v2.3h3.1q0.4 0 0.7 0.3 0.3 0.3 0.3 0.6z"/>
			</g>
		</g>
		<g>
			<g>
				<path class="s0" d="m48.3 13.6l1.8 2.4q0.1 0.1 0.1 0.2 0.1 0.1 0.1 0.3 0 0.3-0.3 0.6-0.3 0.3-0.7 0.3-0.4 0-0.5-0.2-0.2-0.1-0.4-0.3-0.3-0.4-0.5-0.7-0.2-0.2-0.3-0.5-0.2-0.2-0.5-0.6-0.3 0.5-0.7 0.9-0.3 0.5-0.6 0.9-0.3 0.5-0.8 0.5-0.5 0-0.8-0.3-0.3-0.2-0.3-0.6 0-0.3 0.2-0.5 0.5-0.6 0.9-1.2 0.5-0.6 1-1.2-0.5-0.6-0.9-1.1-0.4-0.6-0.9-1.2-0.1-0.1-0.1-0.2 0-0.2 0-0.3 0-0.3 0.2-0.6 0.3-0.3 0.7-0.3 0.5 0 0.7 0.3 0.2 0.2 0.3 0.4l1.1 1.4 1.2-1.5q0.1-0.3 0.3-0.4 0.2-0.2 0.6-0.2 0.3 0 0.6 0.3 0.4 0.2 0.4 0.6 0 0.1-0.1 0.2 0 0.1-0.1 0.3z"/>
			</g>
		</g>
		<g>
			<g>
				<path class="s0" d="m54.7 17.4q-0.3 0-0.6-0.1-0.3-0.1-0.7-0.2v2.3q0 0.4-0.2 0.6-0.3 0.3-0.7 0.3-0.5 0-0.8-0.3-0.2-0.2-0.2-0.6v-7.3q0-0.4-0.2-0.6-0.1-0.1-0.2-0.2 0-0.2 0-0.3 0-0.4 0.3-0.6 0.3-0.3 0.6-0.3 0.3 0 0.5 0.1 0.2 0.1 0.3 0.3 0.5-0.3 1-0.4 0.4-0.2 1-0.2 1.2 0 1.9 0.8 0.7 0.8 0.7 2v1.7q0 0.8-0.2 1.5-0.3 0.7-0.9 1.1-0.6 0.4-1.6 0.4zm-1.3-5.3v3.4q0.4 0.1 0.6 0.2 0.3 0 0.5 0 0.5 0 0.7-0.3 0.2-0.3 0.2-1v-1.7q0-1.1-0.9-1.1-0.4 0-1.1 0.3 0 0 0 0.1 0 0.1 0 0.1z"/>
			</g>
		</g>
		<g>
			<g>
				<path class="s0" d="m61.8 14.5q-0.3 0-0.5 0-0.3 0-0.6-0.1v0.5q0 0.4 0.3 0.6 0.3 0.2 0.8 0.2 0.4 0 0.7-0.1 0.3-0.1 0.6-0.2 0.1 0 0.2 0 0.1-0.1 0.3-0.1 0.5 0 0.7 0.3 0.2 0.3 0.2 0.5 0 0.4-0.3 0.6-0.3 0.3-0.8 0.4-0.4 0.1-0.9 0.2-0.4 0.1-0.8 0.1-0.9 0-1.6-0.4-0.7-0.3-1-0.9-0.4-0.5-0.4-1.3v-2.3q0-1.1 0.8-1.9 0.8-0.7 2.3-0.7 1.4 0 2.1 0.7 0.7 0.7 0.7 1.7 0 1.1-0.7 1.7-0.7 0.5-2.1 0.5zm0.8-2.3q0-0.4-0.2-0.6-0.2-0.2-0.6-0.2-0.6 0-0.8 0.3-0.3 0.2-0.3 0.7v0.6q0.3 0 0.6 0 0.3 0.1 0.4 0.1 0.4 0 0.7-0.2 0.2-0.2 0.2-0.7z"/>
			</g>
		</g>
		<g>
			<g>
				<path class="s0" d="m68 12.1v4.4q0 0.3-0.3 0.6-0.2 0.3-0.7 0.3-0.5 0-0.7-0.3-0.3-0.3-0.3-0.6v-4.4q0-0.3 0-0.4-0.1-0.1-0.1-0.2-0.2-0.2-0.2-0.3-0.1-0.1-0.1-0.2 0-0.4 0.3-0.6 0.3-0.3 0.7-0.3 0.4 0 0.8 0.4 0.4-0.3 0.9-0.4 0.5-0.2 0.9-0.2 1.4 0 2.1 0.8 0.7 0.8 0.7 2v3.8q0 0.3-0.3 0.6-0.2 0.3-0.7 0.3-0.5 0-0.8-0.3-0.2-0.3-0.2-0.6v-3.8q0-0.5-0.3-0.8-0.2-0.3-0.6-0.3-0.5 0-1.1 0.3 0 0 0 0.1 0 0.1 0 0.1z"/>
			</g>
		</g>
		<g>
			<g>
				<path class="s0" d="m73.5 12.1q0-1 0.7-1.6 0.7-0.6 2.1-0.6 0.3 0 0.7 0 0.4 0.1 0.8 0.2 0.4 0.2 0.6 0.4 0.2 0.3 0.2 0.6 0 0.3-0.1 0.5-0.2 0.1-0.4 0.2-0.2 0.1-0.3 0.1-0.3 0-0.5-0.1-0.2-0.1-0.4-0.2-0.2 0-0.6 0-0.8 0-0.8 0.5 0 0.3 0.4 0.4 0.4 0.2 0.9 0.4 0.5 0.1 0.9 0.4 0.5 0.2 0.8 0.7 0.3 0.4 0.3 1.1 0 1-0.7 1.7-0.7 0.6-2.1 0.6-0.3 0-0.8-0.1-0.4 0-0.8-0.1-0.4-0.2-0.7-0.4-0.3-0.2-0.3-0.5 0-0.4 0.3-0.6 0.3-0.3 0.7-0.3 0.3 0 0.7 0.2 0.4 0.1 0.9 0.1 0.4 0 0.6-0.1 0.3-0.2 0.3-0.5 0-0.2-0.1-0.3-0.1-0.1-0.2-0.1-0.3-0.2-0.7-0.3-0.4-0.1-0.8-0.3-0.4-0.1-0.8-0.4-0.3-0.2-0.6-0.6-0.2-0.4-0.2-1z"/>
			</g>
		</g>
		<g>
			<g>
				<path class="s0" d="m83.4 13l0.8-2.5q0.1-0.3 0.3-0.4 0.3-0.2 0.6-0.2 0.4 0 0.7 0.3 0.3 0.2 0.3 0.6 0 0.2 0 0.3l-1.8 5.1q-0.3 0.9-0.6 1.6-0.3 0.7-0.6 1.2-0.4 0.6-0.9 0.9-0.6 0.3-1.4 0.3-0.4 0-0.7-0.3-0.3-0.2-0.3-0.6 0-0.3 0.2-0.6 0.3-0.2 0.7-0.2 0.5-0.1 0.8-0.5 0.3-0.3 0.5-1.1l-2.2-5.8q0-0.1-0.1-0.2 0 0 0-0.1 0-0.4 0.3-0.6 0.3-0.2 0.7-0.3 0.3 0.1 0.6 0.2 0.2 0.1 0.3 0.4l0.9 2.5q0.2 0.4 0.3 0.8 0.1 0.4 0.2 0.8 0.1-0.4 0.2-0.8 0.1-0.4 0.2-0.8z"/>
			</g>
		</g>
	</g>
</svg>