<svg xmlns="http://www.w3.org/2000/svg" xmlns:xlink="http://www.w3.org/1999/xlink" width="72" zoomAndPan="magnify" viewBox="0 0 54 16.5" height="22" preserveAspectRatio="xMidYMid meet" version="1.2"><defs><clipPath id="8eef88690e"><path d="M 0.792969 0 L 53.203125 0 L 53.203125 16.015625 L 0.792969 16.015625 Z M 0.792969 0 "/></clipPath><clipPath id="5e179205d0"><path d="M 8 0.753906 L 15.203125 0.753906 L 15.203125 11.8125 L 8 11.8125 Z M 8 0.753906 "/></clipPath><clipPath id="2fbcc7838d"><path d="M 11.601562 0.753906 C 13.589844 0.753906 15.203125 2.363281 15.203125 4.355469 L 15.203125 8.207031 C 15.203125 10.199219 13.589844 11.808594 11.601562 11.808594 C 9.613281 11.808594 8 10.199219 8 8.207031 L 8 4.355469 C 8 2.363281 9.613281 0.753906 11.601562 0.753906 Z M 11.601562 0.753906 "/></clipPath><clipPath id="3d00a36609"><path d="M 0.792969 2.355469 L 7.269531 2.355469 L 7.269531 10.222656 L 0.792969 10.222656 Z M 0.792969 2.355469 "/></clipPath><clipPath id="80bd27ad01"><path d="M 4.03125 2.355469 C 4.890625 2.355469 5.714844 2.695312 6.324219 3.300781 C 6.929688 3.910156 7.269531 4.734375 7.269531 5.59375 L 7.269531 6.96875 C 7.269531 7.828125 6.929688 8.652344 6.324219 9.261719 C 5.714844 9.867188 4.890625 10.207031 4.03125 10.207031 C 3.171875 10.207031 2.351562 9.867188 1.742188 9.261719 C 1.136719 8.652344 0.792969 7.828125 0.792969 6.96875 L 0.792969 5.59375 C 0.792969 4.734375 1.136719 3.910156 1.742188 3.300781 C 2.351562 2.695312 3.171875 2.355469 4.03125 2.355469 Z M 4.03125 2.355469 "/></clipPath></defs><g id="3438cd3e48"><g clip-rule="nonzero" clip-path="url(#8eef88690e)"><path style=" stroke:none;fill-rule:nonzero;fill:#ffffff;fill-opacity:1;" d="M 0.792969 0 L 53.207031 0 L 53.207031 16.015625 L 0.792969 16.015625 Z M 0.792969 0 "/></g><g clip-rule="nonzero" clip-path="url(#5e179205d0)"><g clip-rule="nonzero" clip-path="url(#2fbcc7838d)"><path style=" stroke:none;fill-rule:nonzero;fill:#5ce1e6;fill-opacity:1;" d="M 8 0.753906 L 15.203125 0.753906 L 15.203125 11.8125 L 8 11.8125 Z M 8 0.753906 "/></g></g><g clip-rule="nonzero" clip-path="url(#3d00a36609)"><g clip-rule="nonzero" clip-path="url(#80bd27ad01)"><path style=" stroke:none;fill-rule:nonzero;fill:#ad78e0;fill-opacity:1;" d="M 0.792969 2.355469 L 7.269531 2.355469 L 7.269531 10.195312 L 0.792969 10.195312 Z M 0.792969 2.355469 "/></g></g><g style="fill:#3a3a3a;fill-opacity:1;"><g transform="translate(16.626575, 9.390447)"><path style="stroke:none" d="M 4.765625 -0.625 C 4.765625 -0.457031 4.695312 -0.3125 4.5625 -0.1875 C 4.425781 -0.0625 4.265625 0 4.078125 0 L 1.515625 0 C 1.273438 0 1.0625 -0.046875 0.875 -0.140625 C 0.695312 -0.242188 0.609375 -0.425781 0.609375 -0.6875 L 0.609375 -6.15625 C 0.609375 -6.320312 0.675781 -6.476562 0.8125 -6.625 C 0.957031 -6.769531 1.140625 -6.84375 1.359375 -6.84375 L 3.984375 -6.84375 C 4.171875 -6.84375 4.332031 -6.78125 4.46875 -6.65625 C 4.601562 -6.53125 4.671875 -6.378906 4.671875 -6.203125 C 4.671875 -6.035156 4.601562 -5.894531 4.46875 -5.78125 C 4.332031 -5.664062 4.171875 -5.609375 3.984375 -5.609375 L 1.96875 -5.609375 L 1.96875 -4.046875 L 3.796875 -4.046875 C 3.972656 -4.046875 4.128906 -3.988281 4.265625 -3.875 C 4.398438 -3.757812 4.46875 -3.613281 4.46875 -3.4375 C 4.46875 -3.257812 4.398438 -3.109375 4.265625 -2.984375 C 4.140625 -2.867188 3.984375 -2.8125 3.796875 -2.8125 L 1.96875 -2.8125 L 1.96875 -1.234375 L 4.078125 -1.234375 C 4.265625 -1.234375 4.425781 -1.175781 4.5625 -1.0625 C 4.695312 -0.945312 4.765625 -0.800781 4.765625 -0.625 Z M 4.765625 -0.625 "/></g></g><g style="fill:#3a3a3a;fill-opacity:1;"><g transform="translate(21.613431, 9.390447)"><path style="stroke:none" d="M 3.078125 -2.5 L 4.328125 -0.84375 C 4.367188 -0.800781 4.394531 -0.753906 4.40625 -0.703125 C 4.414062 -0.648438 4.421875 -0.597656 4.421875 -0.546875 C 4.421875 -0.378906 4.359375 -0.234375 4.234375 -0.109375 C 4.117188 0.00390625 3.957031 0.0625 3.75 0.0625 C 3.59375 0.0625 3.472656 0.0351562 3.390625 -0.015625 C 3.304688 -0.0664062 3.222656 -0.15625 3.140625 -0.28125 C 3.023438 -0.445312 2.921875 -0.582031 2.828125 -0.6875 C 2.742188 -0.800781 2.660156 -0.914062 2.578125 -1.03125 C 2.492188 -1.15625 2.394531 -1.296875 2.28125 -1.453125 C 2.132812 -1.253906 1.984375 -1.050781 1.828125 -0.84375 C 1.671875 -0.632812 1.519531 -0.425781 1.375 -0.21875 C 1.238281 -0.03125 1.054688 0.0625 0.828125 0.0625 C 0.640625 0.0625 0.476562 0.0078125 0.34375 -0.09375 C 0.207031 -0.207031 0.140625 -0.351562 0.140625 -0.53125 C 0.140625 -0.644531 0.175781 -0.742188 0.25 -0.828125 C 0.46875 -1.117188 0.675781 -1.394531 0.875 -1.65625 C 1.070312 -1.914062 1.28125 -2.195312 1.5 -2.5 C 1.3125 -2.75 1.117188 -3 0.921875 -3.25 C 0.722656 -3.507812 0.53125 -3.769531 0.34375 -4.03125 C 0.300781 -4.082031 0.269531 -4.132812 0.25 -4.1875 C 0.226562 -4.25 0.21875 -4.300781 0.21875 -4.34375 C 0.21875 -4.507812 0.28125 -4.648438 0.40625 -4.765625 C 0.539062 -4.890625 0.703125 -4.953125 0.890625 -4.953125 C 1.078125 -4.953125 1.21875 -4.90625 1.3125 -4.8125 C 1.414062 -4.71875 1.5 -4.625 1.5625 -4.53125 L 2.296875 -3.53125 L 3.078125 -4.609375 C 3.148438 -4.710938 3.226562 -4.796875 3.3125 -4.859375 C 3.394531 -4.921875 3.515625 -4.953125 3.671875 -4.953125 C 3.828125 -4.953125 3.976562 -4.894531 4.125 -4.78125 C 4.269531 -4.675781 4.34375 -4.535156 4.34375 -4.359375 C 4.34375 -4.316406 4.332031 -4.269531 4.3125 -4.21875 C 4.300781 -4.164062 4.273438 -4.113281 4.234375 -4.0625 Z M 3.078125 -2.5 "/></g></g><g style="fill:#3a3a3a;fill-opacity:1;"><g transform="translate(26.183101, 9.390447)"><path style="stroke:none" d="M 2.828125 0.0625 C 2.703125 0.0625 2.570312 0.046875 2.4375 0.015625 C 2.3125 -0.00390625 2.160156 -0.0546875 1.984375 -0.140625 L 1.984375 1.46875 C 1.984375 1.625 1.925781 1.757812 1.8125 1.875 C 1.695312 2 1.53125 2.0625 1.3125 2.0625 C 1.101562 2.0625 0.941406 2 0.828125 1.875 C 0.710938 1.757812 0.65625 1.625 0.65625 1.46875 L 0.65625 -3.46875 C 0.65625 -3.664062 0.617188 -3.816406 0.546875 -3.921875 C 0.503906 -3.972656 0.46875 -4.019531 0.4375 -4.0625 C 0.414062 -4.113281 0.40625 -4.171875 0.40625 -4.234375 C 0.40625 -4.410156 0.472656 -4.550781 0.609375 -4.65625 C 0.742188 -4.769531 0.890625 -4.828125 1.046875 -4.828125 C 1.148438 -4.828125 1.242188 -4.800781 1.328125 -4.75 C 1.410156 -4.695312 1.484375 -4.628906 1.546875 -4.546875 C 1.785156 -4.679688 2.007812 -4.785156 2.21875 -4.859375 C 2.425781 -4.941406 2.660156 -4.984375 2.921875 -4.984375 C 3.472656 -4.984375 3.90625 -4.804688 4.21875 -4.453125 C 4.53125 -4.097656 4.6875 -3.640625 4.6875 -3.078125 L 4.6875 -1.953125 C 4.6875 -1.566406 4.628906 -1.222656 4.515625 -0.921875 C 4.398438 -0.617188 4.207031 -0.378906 3.9375 -0.203125 C 3.664062 -0.0234375 3.296875 0.0625 2.828125 0.0625 Z M 1.984375 -3.46875 L 1.984375 -1.171875 C 2.140625 -1.128906 2.273438 -1.097656 2.390625 -1.078125 C 2.515625 -1.054688 2.617188 -1.046875 2.703125 -1.046875 C 2.941406 -1.046875 3.109375 -1.117188 3.203125 -1.265625 C 3.296875 -1.421875 3.34375 -1.648438 3.34375 -1.953125 L 3.34375 -3.078125 C 3.34375 -3.597656 3.132812 -3.859375 2.71875 -3.859375 C 2.519531 -3.859375 2.269531 -3.785156 1.96875 -3.640625 C 1.976562 -3.609375 1.984375 -3.578125 1.984375 -3.546875 C 1.984375 -3.523438 1.984375 -3.5 1.984375 -3.46875 Z M 1.984375 -3.46875 "/></g></g><g style="fill:#3a3a3a;fill-opacity:1;"><g transform="translate(31.305792, 9.390447)"><path style="stroke:none" d="M 2.515625 -1.859375 C 2.398438 -1.859375 2.28125 -1.859375 2.15625 -1.859375 C 2.039062 -1.867188 1.914062 -1.882812 1.78125 -1.90625 L 1.78125 -1.59375 C 1.78125 -1.425781 1.84375 -1.289062 1.96875 -1.1875 C 2.09375 -1.09375 2.285156 -1.046875 2.546875 -1.046875 C 2.703125 -1.046875 2.847656 -1.066406 2.984375 -1.109375 C 3.117188 -1.148438 3.265625 -1.203125 3.421875 -1.265625 C 3.441406 -1.273438 3.472656 -1.285156 3.515625 -1.296875 C 3.566406 -1.304688 3.632812 -1.3125 3.71875 -1.3125 C 3.945312 -1.3125 4.101562 -1.25 4.1875 -1.125 C 4.269531 -1.007812 4.3125 -0.894531 4.3125 -0.78125 C 4.3125 -0.613281 4.242188 -0.472656 4.109375 -0.359375 C 3.984375 -0.253906 3.816406 -0.171875 3.609375 -0.109375 C 3.410156 -0.046875 3.207031 -0.00390625 3 0.015625 C 2.789062 0.046875 2.609375 0.0625 2.453125 0.0625 C 2.023438 0.0625 1.660156 -0.0078125 1.359375 -0.15625 C 1.054688 -0.300781 0.828125 -0.503906 0.671875 -0.765625 C 0.515625 -1.023438 0.4375 -1.3125 0.4375 -1.625 L 0.4375 -3.25 C 0.4375 -3.738281 0.613281 -4.148438 0.96875 -4.484375 C 1.320312 -4.816406 1.832031 -4.984375 2.5 -4.984375 C 3.132812 -4.984375 3.609375 -4.828125 3.921875 -4.515625 C 4.242188 -4.210938 4.40625 -3.816406 4.40625 -3.328125 C 4.40625 -2.859375 4.253906 -2.492188 3.953125 -2.234375 C 3.648438 -1.984375 3.171875 -1.859375 2.515625 -1.859375 Z M 3.078125 -3.390625 C 3.078125 -3.585938 3.023438 -3.726562 2.921875 -3.8125 C 2.828125 -3.894531 2.6875 -3.9375 2.5 -3.9375 C 2.257812 -3.9375 2.078125 -3.878906 1.953125 -3.765625 C 1.835938 -3.648438 1.78125 -3.5 1.78125 -3.3125 L 1.78125 -2.890625 C 1.9375 -2.878906 2.078125 -2.867188 2.203125 -2.859375 C 2.335938 -2.859375 2.425781 -2.859375 2.46875 -2.859375 C 2.65625 -2.859375 2.800781 -2.894531 2.90625 -2.96875 C 3.019531 -3.039062 3.078125 -3.179688 3.078125 -3.390625 Z M 3.078125 -3.390625 "/></g></g><g style="fill:#3a3a3a;fill-opacity:1;"><g transform="translate(36.011284, 9.390447)"><path style="stroke:none" d="M 1.984375 -3.46875 L 1.984375 -0.53125 C 1.984375 -0.375 1.925781 -0.234375 1.8125 -0.109375 C 1.707031 0.00390625 1.539062 0.0625 1.3125 0.0625 C 1.09375 0.0625 0.925781 0.00390625 0.8125 -0.109375 C 0.707031 -0.234375 0.65625 -0.375 0.65625 -0.53125 L 0.65625 -3.46875 C 0.65625 -3.632812 0.644531 -3.738281 0.625 -3.78125 C 0.613281 -3.820312 0.597656 -3.851562 0.578125 -3.875 C 0.503906 -3.96875 0.457031 -4.035156 0.4375 -4.078125 C 0.414062 -4.128906 0.40625 -4.191406 0.40625 -4.265625 C 0.40625 -4.421875 0.46875 -4.550781 0.59375 -4.65625 C 0.71875 -4.769531 0.875 -4.828125 1.0625 -4.828125 C 1.25 -4.828125 1.421875 -4.734375 1.578125 -4.546875 C 1.796875 -4.691406 2.015625 -4.796875 2.234375 -4.859375 C 2.453125 -4.921875 2.660156 -4.953125 2.859375 -4.953125 C 3.472656 -4.953125 3.929688 -4.78125 4.234375 -4.4375 C 4.535156 -4.09375 4.6875 -3.632812 4.6875 -3.0625 L 4.6875 -0.53125 C 4.6875 -0.375 4.628906 -0.234375 4.515625 -0.109375 C 4.398438 0.00390625 4.234375 0.0625 4.015625 0.0625 C 3.804688 0.0625 3.640625 0.00390625 3.515625 -0.109375 C 3.398438 -0.234375 3.34375 -0.375 3.34375 -0.53125 L 3.34375 -3.0625 C 3.34375 -3.3125 3.285156 -3.503906 3.171875 -3.640625 C 3.066406 -3.785156 2.914062 -3.859375 2.71875 -3.859375 C 2.519531 -3.859375 2.269531 -3.785156 1.96875 -3.640625 C 1.976562 -3.609375 1.984375 -3.578125 1.984375 -3.546875 C 1.984375 -3.523438 1.984375 -3.5 1.984375 -3.46875 Z M 1.984375 -3.46875 "/></g></g><g style="fill:#3a3a3a;fill-opacity:1;"><g transform="translate(41.337708, 9.390447)"><path style="stroke:none" d="M 0.421875 -3.46875 C 0.421875 -3.914062 0.578125 -4.28125 0.890625 -4.5625 C 1.203125 -4.84375 1.671875 -4.984375 2.296875 -4.984375 C 2.441406 -4.984375 2.601562 -4.96875 2.78125 -4.9375 C 2.96875 -4.914062 3.140625 -4.875 3.296875 -4.8125 C 3.460938 -4.75 3.597656 -4.664062 3.703125 -4.5625 C 3.804688 -4.457031 3.859375 -4.320312 3.859375 -4.15625 C 3.859375 -4.019531 3.820312 -3.914062 3.75 -3.84375 C 3.6875 -3.769531 3.609375 -3.71875 3.515625 -3.6875 C 3.429688 -3.664062 3.359375 -3.65625 3.296875 -3.65625 C 3.179688 -3.65625 3.078125 -3.671875 2.984375 -3.703125 C 2.898438 -3.742188 2.804688 -3.78125 2.703125 -3.8125 C 2.597656 -3.84375 2.460938 -3.859375 2.296875 -3.859375 C 1.921875 -3.859375 1.734375 -3.742188 1.734375 -3.515625 C 1.734375 -3.378906 1.832031 -3.269531 2.03125 -3.1875 C 2.207031 -3.113281 2.40625 -3.039062 2.625 -2.96875 C 2.84375 -2.90625 3.054688 -2.816406 3.265625 -2.703125 C 3.484375 -2.585938 3.660156 -2.429688 3.796875 -2.234375 C 3.929688 -2.046875 4 -1.789062 4 -1.46875 C 4 -0.988281 3.835938 -0.613281 3.515625 -0.34375 C 3.191406 -0.0703125 2.722656 0.0625 2.109375 0.0625 C 1.953125 0.0625 1.773438 0.0507812 1.578125 0.03125 C 1.378906 0.0078125 1.1875 -0.0234375 1 -0.078125 C 0.8125 -0.140625 0.65625 -0.21875 0.53125 -0.3125 C 0.414062 -0.414062 0.359375 -0.539062 0.359375 -0.6875 C 0.359375 -0.832031 0.414062 -0.960938 0.53125 -1.078125 C 0.644531 -1.203125 0.796875 -1.265625 0.984375 -1.265625 C 1.148438 -1.265625 1.316406 -1.226562 1.484375 -1.15625 C 1.648438 -1.082031 1.851562 -1.046875 2.09375 -1.046875 C 2.257812 -1.046875 2.394531 -1.078125 2.5 -1.140625 C 2.613281 -1.203125 2.671875 -1.300781 2.671875 -1.4375 C 2.671875 -1.53125 2.648438 -1.597656 2.609375 -1.640625 C 2.566406 -1.679688 2.519531 -1.71875 2.46875 -1.75 C 2.351562 -1.820312 2.203125 -1.882812 2.015625 -1.9375 C 1.835938 -1.988281 1.65625 -2.046875 1.46875 -2.109375 C 1.289062 -2.179688 1.117188 -2.269531 0.953125 -2.375 C 0.796875 -2.488281 0.664062 -2.628906 0.5625 -2.796875 C 0.46875 -2.972656 0.421875 -3.195312 0.421875 -3.46875 Z M 0.421875 -3.46875 "/></g></g><g style="fill:#3a3a3a;fill-opacity:1;"><g transform="translate(45.790971, 9.390447)"><path style="stroke:none" d="M 2.625 -2.90625 L 3.15625 -4.546875 C 3.195312 -4.679688 3.28125 -4.78125 3.40625 -4.84375 C 3.53125 -4.914062 3.65625 -4.953125 3.78125 -4.953125 C 3.945312 -4.953125 4.097656 -4.894531 4.234375 -4.78125 C 4.378906 -4.675781 4.453125 -4.535156 4.453125 -4.359375 C 4.453125 -4.296875 4.441406 -4.238281 4.421875 -4.1875 L 3.234375 -0.734375 C 3.097656 -0.335938 2.96875 0.0195312 2.84375 0.34375 C 2.71875 0.675781 2.570312 0.960938 2.40625 1.203125 C 2.238281 1.453125 2.03125 1.640625 1.78125 1.765625 C 1.539062 1.898438 1.234375 1.96875 0.859375 1.96875 C 0.671875 1.96875 0.507812 1.910156 0.375 1.796875 C 0.25 1.691406 0.1875 1.554688 0.1875 1.390625 C 0.1875 1.242188 0.242188 1.109375 0.359375 0.984375 C 0.472656 0.867188 0.628906 0.8125 0.828125 0.8125 C 1.035156 0.789062 1.203125 0.695312 1.328125 0.53125 C 1.453125 0.363281 1.578125 0.09375 1.703125 -0.28125 L 0.203125 -4.140625 C 0.179688 -4.191406 0.164062 -4.238281 0.15625 -4.28125 C 0.15625 -4.320312 0.15625 -4.351562 0.15625 -4.375 C 0.15625 -4.539062 0.21875 -4.675781 0.34375 -4.78125 C 0.476562 -4.894531 0.640625 -4.953125 0.828125 -4.953125 C 0.953125 -4.953125 1.070312 -4.914062 1.1875 -4.84375 C 1.300781 -4.78125 1.382812 -4.679688 1.4375 -4.546875 L 2.046875 -2.90625 C 2.117188 -2.738281 2.175781 -2.554688 2.21875 -2.359375 C 2.257812 -2.160156 2.304688 -1.972656 2.359375 -1.796875 C 2.398438 -1.972656 2.441406 -2.160156 2.484375 -2.359375 C 2.523438 -2.554688 2.570312 -2.738281 2.625 -2.90625 Z M 2.625 -2.90625 "/></g></g></g></svg>