<svg xmlns="http://www.w3.org/2000/svg" xmlns:xlink="http://www.w3.org/1999/xlink" width="105" zoomAndPan="magnify" viewBox="0 0 78.75 19.5" height="26" preserveAspectRatio="xMidYMid meet" version="1.2"><defs><clipPath id="5cdd683af0"><path d="M 0.863281 0 L 77.644531 0 L 77.644531 19.011719 L 0.863281 19.011719 Z M 0.863281 0 "/></clipPath><clipPath id="61f2a0a6ea"><path d="M 0.863281 0 L 77.496094 0 L 77.496094 18.3125 L 0.863281 18.3125 Z M 0.863281 0 "/></clipPath><clipPath id="4199d49339"><path d="M 18.769531 3.046875 L 26.277344 3.046875 L 26.277344 14.164062 L 18.769531 14.164062 Z M 18.769531 3.046875 "/></clipPath><clipPath id="a550e5a294"><path d="M 22.523438 3.046875 C 23.519531 3.046875 24.472656 3.441406 25.179688 4.144531 C 25.882812 4.851562 26.277344 5.804688 26.277344 6.800781 L 26.277344 10.398438 C 26.277344 11.394531 25.882812 12.347656 25.179688 13.054688 C 24.472656 13.757812 23.519531 14.152344 22.523438 14.152344 C 21.527344 14.152344 20.570312 13.757812 19.867188 13.054688 C 19.164062 12.347656 18.769531 11.394531 18.769531 10.398438 L 18.769531 6.800781 C 18.769531 5.804688 19.164062 4.851562 19.867188 4.144531 C 20.570312 3.441406 21.527344 3.046875 22.523438 3.046875 Z M 22.523438 3.046875 "/></clipPath><clipPath id="91146d677e"><path d="M 11.257812 4.652344 L 18.007812 4.652344 L 18.007812 12.566406 L 11.257812 12.566406 Z M 11.257812 4.652344 "/></clipPath><clipPath id="d882235d1b"><path d="M 14.632812 4.652344 C 16.496094 4.652344 18.007812 6.164062 18.007812 8.03125 L 18.007812 9.167969 C 18.007812 11.035156 16.496094 12.542969 14.632812 12.542969 C 12.769531 12.542969 11.257812 11.035156 11.257812 9.167969 L 11.257812 8.03125 C 11.257812 6.164062 12.769531 4.652344 14.632812 4.652344 Z M 14.632812 4.652344 "/></clipPath></defs><g id="b3ea4b45f8"><g clip-rule="nonzero" clip-path="url(#5cdd683af0)"><path style=" stroke:none;fill-rule:nonzero;fill:#ffffff;fill-opacity:1;" d="M 0.863281 0 L 77.644531 0 L 77.644531 19.011719 L 0.863281 19.011719 Z M 0.863281 0 "/></g><g clip-rule="nonzero" clip-path="url(#61f2a0a6ea)"><path style=" stroke:none;fill-rule:nonzero;fill:#000000;fill-opacity:1;" d="M 0.863281 0 L 77.480469 0 L 77.480469 18.3125 L 0.863281 18.3125 Z M 0.863281 0 "/></g><g clip-rule="nonzero" clip-path="url(#4199d49339)"><g clip-rule="nonzero" clip-path="url(#a550e5a294)"><path style=" stroke:none;fill-rule:nonzero;fill:#5ce1e6;fill-opacity:1;" d="M 18.769531 3.046875 L 26.277344 3.046875 L 26.277344 14.164062 L 18.769531 14.164062 Z M 18.769531 3.046875 "/></g></g><g clip-rule="nonzero" clip-path="url(#91146d677e)"><g clip-rule="nonzero" clip-path="url(#d882235d1b)"><path style=" stroke:none;fill-rule:nonzero;fill:#ad78e0;fill-opacity:1;" d="M 11.257812 4.652344 L 18.007812 4.652344 L 18.007812 12.539062 L 11.257812 12.539062 Z M 11.257812 4.652344 "/></g></g><g style="fill:#ffffff;fill-opacity:1;"><g transform="translate(28.401784, 11.72289)"><path style="stroke:none" d="M 4.78125 -0.640625 C 4.78125 -0.460938 4.710938 -0.3125 4.578125 -0.1875 C 4.453125 -0.0625 4.296875 0 4.109375 0 L 1.515625 0 C 1.273438 0 1.0625 -0.046875 0.875 -0.140625 C 0.695312 -0.242188 0.609375 -0.425781 0.609375 -0.6875 L 0.609375 -6.1875 C 0.609375 -6.351562 0.679688 -6.507812 0.828125 -6.65625 C 0.972656 -6.800781 1.148438 -6.875 1.359375 -6.875 L 4 -6.875 C 4.195312 -6.875 4.359375 -6.8125 4.484375 -6.6875 C 4.617188 -6.5625 4.6875 -6.410156 4.6875 -6.234375 C 4.6875 -6.066406 4.617188 -5.925781 4.484375 -5.8125 C 4.359375 -5.695312 4.195312 -5.640625 4 -5.640625 L 1.984375 -5.640625 L 1.984375 -4.0625 L 3.828125 -4.0625 C 3.992188 -4.0625 4.144531 -4.003906 4.28125 -3.890625 C 4.425781 -3.773438 4.5 -3.628906 4.5 -3.453125 C 4.5 -3.273438 4.429688 -3.125 4.296875 -3 C 4.171875 -2.882812 4.015625 -2.828125 3.828125 -2.828125 L 1.984375 -2.828125 L 1.984375 -1.234375 L 4.109375 -1.234375 C 4.285156 -1.234375 4.441406 -1.175781 4.578125 -1.0625 C 4.710938 -0.945312 4.78125 -0.804688 4.78125 -0.640625 Z M 4.78125 -0.640625 "/></g></g><g style="fill:#ffffff;fill-opacity:1;"><g transform="translate(33.411309, 11.72289)"><path style="stroke:none" d="M 3.09375 -2.5 L 4.34375 -0.84375 C 4.382812 -0.800781 4.410156 -0.753906 4.421875 -0.703125 C 4.441406 -0.648438 4.453125 -0.597656 4.453125 -0.546875 C 4.453125 -0.378906 4.390625 -0.234375 4.265625 -0.109375 C 4.140625 0.00390625 3.972656 0.0625 3.765625 0.0625 C 3.609375 0.0625 3.488281 0.0351562 3.40625 -0.015625 C 3.320312 -0.0664062 3.238281 -0.15625 3.15625 -0.28125 C 3.039062 -0.445312 2.9375 -0.585938 2.84375 -0.703125 C 2.757812 -0.816406 2.675781 -0.929688 2.59375 -1.046875 C 2.507812 -1.160156 2.410156 -1.300781 2.296875 -1.46875 C 2.140625 -1.257812 1.984375 -1.050781 1.828125 -0.84375 C 1.679688 -0.632812 1.535156 -0.425781 1.390625 -0.21875 C 1.242188 -0.03125 1.054688 0.0625 0.828125 0.0625 C 0.640625 0.0625 0.476562 0.0078125 0.34375 -0.09375 C 0.207031 -0.207031 0.140625 -0.351562 0.140625 -0.53125 C 0.140625 -0.644531 0.175781 -0.742188 0.25 -0.828125 C 0.46875 -1.128906 0.675781 -1.410156 0.875 -1.671875 C 1.082031 -1.929688 1.296875 -2.207031 1.515625 -2.5 C 1.316406 -2.757812 1.117188 -3.015625 0.921875 -3.265625 C 0.734375 -3.523438 0.539062 -3.789062 0.34375 -4.0625 C 0.300781 -4.101562 0.269531 -4.148438 0.25 -4.203125 C 0.226562 -4.265625 0.21875 -4.320312 0.21875 -4.375 C 0.21875 -4.53125 0.28125 -4.664062 0.40625 -4.78125 C 0.539062 -4.90625 0.703125 -4.96875 0.890625 -4.96875 C 1.085938 -4.96875 1.234375 -4.921875 1.328125 -4.828125 C 1.421875 -4.734375 1.5 -4.640625 1.5625 -4.546875 L 2.3125 -3.546875 L 3.09375 -4.625 C 3.164062 -4.726562 3.242188 -4.8125 3.328125 -4.875 C 3.421875 -4.9375 3.539062 -4.96875 3.6875 -4.96875 C 3.84375 -4.96875 3.992188 -4.910156 4.140625 -4.796875 C 4.285156 -4.691406 4.359375 -4.554688 4.359375 -4.390625 C 4.359375 -4.335938 4.347656 -4.285156 4.328125 -4.234375 C 4.316406 -4.179688 4.296875 -4.128906 4.265625 -4.078125 Z M 3.09375 -2.5 "/></g></g><g style="fill:#ffffff;fill-opacity:1;"><g transform="translate(38.00175, 11.72289)"><path style="stroke:none" d="M 2.84375 0.0625 C 2.71875 0.0625 2.585938 0.046875 2.453125 0.015625 C 2.328125 -0.00390625 2.175781 -0.0546875 2 -0.140625 L 2 1.46875 C 2 1.632812 1.9375 1.773438 1.8125 1.890625 C 1.695312 2.003906 1.535156 2.0625 1.328125 2.0625 C 1.109375 2.0625 0.941406 2.003906 0.828125 1.890625 C 0.710938 1.773438 0.65625 1.632812 0.65625 1.46875 L 0.65625 -3.484375 C 0.65625 -3.679688 0.617188 -3.832031 0.546875 -3.9375 C 0.503906 -3.988281 0.46875 -4.035156 0.4375 -4.078125 C 0.414062 -4.128906 0.40625 -4.1875 0.40625 -4.25 C 0.40625 -4.4375 0.472656 -4.582031 0.609375 -4.6875 C 0.742188 -4.789062 0.890625 -4.84375 1.046875 -4.84375 C 1.148438 -4.84375 1.242188 -4.816406 1.328125 -4.765625 C 1.421875 -4.722656 1.5 -4.660156 1.5625 -4.578125 C 1.789062 -4.703125 2.007812 -4.800781 2.21875 -4.875 C 2.4375 -4.957031 2.675781 -5 2.9375 -5 C 3.488281 -5 3.921875 -4.820312 4.234375 -4.46875 C 4.546875 -4.113281 4.703125 -3.65625 4.703125 -3.09375 L 4.703125 -1.953125 C 4.703125 -1.578125 4.644531 -1.234375 4.53125 -0.921875 C 4.425781 -0.617188 4.234375 -0.378906 3.953125 -0.203125 C 3.679688 -0.0234375 3.3125 0.0625 2.84375 0.0625 Z M 2 -3.484375 L 2 -1.1875 C 2.144531 -1.132812 2.273438 -1.097656 2.390625 -1.078125 C 2.515625 -1.054688 2.617188 -1.046875 2.703125 -1.046875 C 2.953125 -1.046875 3.125 -1.117188 3.21875 -1.265625 C 3.3125 -1.421875 3.359375 -1.648438 3.359375 -1.953125 L 3.359375 -3.09375 C 3.359375 -3.613281 3.148438 -3.875 2.734375 -3.875 C 2.535156 -3.875 2.285156 -3.804688 1.984375 -3.671875 C 1.984375 -3.640625 1.984375 -3.609375 1.984375 -3.578125 C 1.992188 -3.546875 2 -3.515625 2 -3.484375 Z M 2 -3.484375 "/></g></g><g style="fill:#ffffff;fill-opacity:1;"><g transform="translate(43.147725, 11.72289)"><path style="stroke:none" d="M 2.53125 -1.859375 C 2.40625 -1.859375 2.285156 -1.863281 2.171875 -1.875 C 2.054688 -1.882812 1.925781 -1.898438 1.78125 -1.921875 L 1.78125 -1.59375 C 1.78125 -1.4375 1.84375 -1.304688 1.96875 -1.203125 C 2.101562 -1.097656 2.300781 -1.046875 2.5625 -1.046875 C 2.71875 -1.046875 2.863281 -1.066406 3 -1.109375 C 3.132812 -1.148438 3.28125 -1.203125 3.4375 -1.265625 C 3.457031 -1.273438 3.488281 -1.285156 3.53125 -1.296875 C 3.582031 -1.316406 3.648438 -1.328125 3.734375 -1.328125 C 3.960938 -1.328125 4.117188 -1.265625 4.203125 -1.140625 C 4.296875 -1.015625 4.34375 -0.898438 4.34375 -0.796875 C 4.34375 -0.617188 4.273438 -0.472656 4.140625 -0.359375 C 4.003906 -0.253906 3.832031 -0.171875 3.625 -0.109375 C 3.425781 -0.046875 3.222656 -0.00390625 3.015625 0.015625 C 2.804688 0.046875 2.625 0.0625 2.46875 0.0625 C 2.039062 0.0625 1.675781 -0.0078125 1.375 -0.15625 C 1.070312 -0.300781 0.835938 -0.503906 0.671875 -0.765625 C 0.515625 -1.023438 0.4375 -1.316406 0.4375 -1.640625 L 0.4375 -3.265625 C 0.4375 -3.753906 0.613281 -4.164062 0.96875 -4.5 C 1.320312 -4.832031 1.835938 -5 2.515625 -5 C 3.148438 -5 3.625 -4.84375 3.9375 -4.53125 C 4.257812 -4.226562 4.421875 -3.832031 4.421875 -3.34375 C 4.421875 -2.875 4.269531 -2.507812 3.96875 -2.25 C 3.664062 -1.988281 3.1875 -1.859375 2.53125 -1.859375 Z M 3.09375 -3.40625 C 3.09375 -3.601562 3.039062 -3.742188 2.9375 -3.828125 C 2.832031 -3.910156 2.6875 -3.953125 2.5 -3.953125 C 2.269531 -3.953125 2.09375 -3.894531 1.96875 -3.78125 C 1.84375 -3.675781 1.78125 -3.523438 1.78125 -3.328125 L 1.78125 -2.90625 C 1.9375 -2.894531 2.082031 -2.882812 2.21875 -2.875 C 2.351562 -2.863281 2.441406 -2.859375 2.484375 -2.859375 C 2.671875 -2.859375 2.816406 -2.894531 2.921875 -2.96875 C 3.035156 -3.050781 3.09375 -3.195312 3.09375 -3.40625 Z M 3.09375 -3.40625 "/></g></g><g style="fill:#ffffff;fill-opacity:1;"><g transform="translate(47.874607, 11.72289)"><path style="stroke:none" d="M 2 -3.484375 L 2 -0.53125 C 2 -0.375 1.941406 -0.234375 1.828125 -0.109375 C 1.722656 0.00390625 1.554688 0.0625 1.328125 0.0625 C 1.109375 0.0625 0.941406 0.00390625 0.828125 -0.109375 C 0.710938 -0.234375 0.65625 -0.375 0.65625 -0.53125 L 0.65625 -3.484375 C 0.65625 -3.648438 0.644531 -3.753906 0.625 -3.796875 C 0.613281 -3.835938 0.597656 -3.875 0.578125 -3.90625 C 0.515625 -3.988281 0.46875 -4.054688 0.4375 -4.109375 C 0.414062 -4.160156 0.40625 -4.21875 0.40625 -4.28125 C 0.40625 -4.445312 0.46875 -4.582031 0.59375 -4.6875 C 0.726562 -4.789062 0.882812 -4.84375 1.0625 -4.84375 C 1.257812 -4.84375 1.429688 -4.75 1.578125 -4.5625 C 1.796875 -4.707031 2.015625 -4.8125 2.234375 -4.875 C 2.460938 -4.945312 2.671875 -4.984375 2.859375 -4.984375 C 3.484375 -4.984375 3.945312 -4.804688 4.25 -4.453125 C 4.550781 -4.109375 4.703125 -3.648438 4.703125 -3.078125 L 4.703125 -0.53125 C 4.703125 -0.375 4.644531 -0.234375 4.53125 -0.109375 C 4.414062 0.00390625 4.25 0.0625 4.03125 0.0625 C 3.820312 0.0625 3.65625 0.00390625 3.53125 -0.109375 C 3.414062 -0.234375 3.359375 -0.375 3.359375 -0.53125 L 3.359375 -3.078125 C 3.359375 -3.328125 3.300781 -3.519531 3.1875 -3.65625 C 3.070312 -3.800781 2.921875 -3.875 2.734375 -3.875 C 2.535156 -3.875 2.285156 -3.804688 1.984375 -3.671875 C 1.984375 -3.640625 1.984375 -3.609375 1.984375 -3.578125 C 1.992188 -3.546875 2 -3.515625 2 -3.484375 Z M 2 -3.484375 "/></g></g><g style="fill:#ffffff;fill-opacity:1;"><g transform="translate(53.225242, 11.72289)"><path style="stroke:none" d="M 0.421875 -3.484375 C 0.421875 -3.929688 0.578125 -4.296875 0.890625 -4.578125 C 1.203125 -4.859375 1.671875 -5 2.296875 -5 C 2.453125 -5 2.617188 -4.988281 2.796875 -4.96875 C 2.984375 -4.945312 3.15625 -4.90625 3.3125 -4.84375 C 3.476562 -4.78125 3.613281 -4.691406 3.71875 -4.578125 C 3.820312 -4.472656 3.875 -4.335938 3.875 -4.171875 C 3.875 -4.035156 3.835938 -3.929688 3.765625 -3.859375 C 3.703125 -3.785156 3.625 -3.734375 3.53125 -3.703125 C 3.445312 -3.679688 3.375 -3.671875 3.3125 -3.671875 C 3.195312 -3.671875 3.09375 -3.6875 3 -3.71875 C 2.90625 -3.757812 2.804688 -3.796875 2.703125 -3.828125 C 2.597656 -3.859375 2.46875 -3.875 2.3125 -3.875 C 1.9375 -3.875 1.75 -3.757812 1.75 -3.53125 C 1.75 -3.394531 1.84375 -3.285156 2.03125 -3.203125 C 2.207031 -3.128906 2.40625 -3.054688 2.625 -2.984375 C 2.851562 -2.921875 3.070312 -2.832031 3.28125 -2.71875 C 3.5 -2.601562 3.675781 -2.445312 3.8125 -2.25 C 3.945312 -2.050781 4.015625 -1.789062 4.015625 -1.46875 C 4.015625 -1 3.851562 -0.625 3.53125 -0.34375 C 3.207031 -0.0703125 2.734375 0.0625 2.109375 0.0625 C 1.953125 0.0625 1.773438 0.0507812 1.578125 0.03125 C 1.378906 0.0078125 1.1875 -0.0234375 1 -0.078125 C 0.8125 -0.140625 0.65625 -0.21875 0.53125 -0.3125 C 0.414062 -0.414062 0.359375 -0.539062 0.359375 -0.6875 C 0.359375 -0.832031 0.414062 -0.960938 0.53125 -1.078125 C 0.65625 -1.203125 0.8125 -1.265625 1 -1.265625 C 1.15625 -1.265625 1.316406 -1.226562 1.484375 -1.15625 C 1.648438 -1.082031 1.851562 -1.046875 2.09375 -1.046875 C 2.269531 -1.046875 2.410156 -1.078125 2.515625 -1.140625 C 2.628906 -1.203125 2.6875 -1.300781 2.6875 -1.4375 C 2.6875 -1.53125 2.664062 -1.597656 2.625 -1.640625 C 2.582031 -1.691406 2.535156 -1.726562 2.484375 -1.75 C 2.359375 -1.820312 2.207031 -1.882812 2.03125 -1.9375 C 1.851562 -2 1.671875 -2.0625 1.484375 -2.125 C 1.296875 -2.195312 1.117188 -2.285156 0.953125 -2.390625 C 0.796875 -2.492188 0.664062 -2.632812 0.5625 -2.8125 C 0.46875 -2.988281 0.421875 -3.210938 0.421875 -3.484375 Z M 0.421875 -3.484375 "/></g></g><g style="fill:#ffffff;fill-opacity:1;"><g transform="translate(57.698748, 11.72289)"><path style="stroke:none" d="M 2.640625 -2.921875 L 3.171875 -4.5625 C 3.210938 -4.707031 3.296875 -4.8125 3.421875 -4.875 C 3.546875 -4.9375 3.671875 -4.96875 3.796875 -4.96875 C 3.972656 -4.96875 4.128906 -4.910156 4.265625 -4.796875 C 4.398438 -4.691406 4.46875 -4.550781 4.46875 -4.375 C 4.46875 -4.3125 4.460938 -4.253906 4.453125 -4.203125 L 3.25 -0.734375 C 3.113281 -0.335938 2.984375 0.0195312 2.859375 0.34375 C 2.734375 0.675781 2.585938 0.960938 2.421875 1.203125 C 2.253906 1.453125 2.046875 1.644531 1.796875 1.78125 C 1.546875 1.914062 1.238281 1.984375 0.875 1.984375 C 0.675781 1.984375 0.507812 1.925781 0.375 1.8125 C 0.25 1.695312 0.1875 1.554688 0.1875 1.390625 C 0.1875 1.242188 0.242188 1.109375 0.359375 0.984375 C 0.472656 0.867188 0.628906 0.8125 0.828125 0.8125 C 1.046875 0.800781 1.21875 0.707031 1.34375 0.53125 C 1.46875 0.363281 1.585938 0.09375 1.703125 -0.28125 L 0.203125 -4.15625 C 0.179688 -4.207031 0.164062 -4.253906 0.15625 -4.296875 C 0.15625 -4.335938 0.15625 -4.367188 0.15625 -4.390625 C 0.15625 -4.566406 0.21875 -4.707031 0.34375 -4.8125 C 0.476562 -4.914062 0.640625 -4.96875 0.828125 -4.96875 C 0.960938 -4.96875 1.082031 -4.929688 1.1875 -4.859375 C 1.300781 -4.796875 1.382812 -4.695312 1.4375 -4.5625 L 2.0625 -2.921875 C 2.132812 -2.742188 2.191406 -2.554688 2.234375 -2.359375 C 2.273438 -2.171875 2.320312 -1.984375 2.375 -1.796875 C 2.414062 -1.984375 2.453125 -2.171875 2.484375 -2.359375 C 2.523438 -2.554688 2.578125 -2.742188 2.640625 -2.921875 Z M 2.640625 -2.921875 "/></g></g></g></svg>